<svg width="149" height="148" viewBox="0 0 149 148" fill="none" xmlns="http://www.w3.org/2000/svg">
<g clip-path="url(#clip0_11_47)">
<path d="M46.2187 0.124784C46.4707 0.122403 46.7226 0.120022 46.9823 0.117569C47.8247 0.111672 48.6667 0.117743 49.5092 0.123806C50.1139 0.122081 50.7186 0.119638 51.3233 0.116529C52.9645 0.110313 54.6054 0.11466 56.2466 0.121258C57.9641 0.126756 59.6815 0.1238 61.399 0.122091C64.2831 0.120573 67.1672 0.125901 70.0514 0.135277C73.3859 0.146034 76.7203 0.146028 80.0548 0.140239C83.2625 0.134915 86.4701 0.137174 89.6778 0.142902C91.0429 0.145209 92.408 0.144861 93.7731 0.142384C95.3807 0.139813 96.9881 0.14388 98.5956 0.153072C99.1856 0.155384 99.7756 0.155414 100.366 0.153C101.171 0.150084 101.976 0.155433 102.781 0.162883C103.457 0.164296 103.457 0.164296 104.147 0.165738C105.531 0.36591 106.096 0.750166 107.083 1.67801C107.591 2.37774 108.044 3.06387 108.492 3.79649C108.8 4.27033 109.11 4.74351 109.421 5.21624C110.084 6.23222 110.734 7.25361 111.371 8.28466C114.85 14.5688 114.85 14.5688 120.482 18.7209C121.706 18.9783 122.929 19.1411 124.174 19.2818C126.635 19.6494 129.028 20.3332 131.429 20.9535C132.315 21.1799 133.203 21.3982 134.091 21.6139C139.253 22.8732 143.729 24.0535 146.865 28.5261C148.486 31.3878 148.802 33.9442 148.787 37.1746C148.789 37.5992 148.791 38.0238 148.793 38.4612C148.799 39.6328 148.798 40.8044 148.796 41.976C148.795 43.2422 148.8 44.5085 148.805 45.7747C148.812 48.2529 148.814 50.7311 148.813 53.2092C148.813 55.2244 148.814 57.2396 148.817 59.2547C148.817 59.836 148.818 60.4172 148.819 60.9985C148.819 61.4325 148.819 61.4325 148.82 61.8753C148.827 67.3432 148.826 72.8111 148.824 78.2791C148.822 83.2763 148.829 88.2734 148.841 93.2706C148.853 98.407 148.858 103.543 148.856 108.68C148.856 111.561 148.858 114.443 148.866 117.325C148.874 119.778 148.875 122.231 148.868 124.685C148.865 125.935 148.865 127.185 148.872 128.436C148.88 129.795 148.874 131.153 148.867 132.512C148.871 132.903 148.876 133.294 148.88 133.696C148.841 137.119 147.858 140.294 145.301 142.798C144.915 143.188 144.915 143.188 144.52 143.585C143.16 144.81 141.836 145.774 140.15 146.553C139.702 146.762 139.702 146.762 139.244 146.976C137.858 147.578 136.811 147.707 135.299 147.71C134.645 147.713 134.645 147.713 133.977 147.716C133.49 147.716 133.003 147.716 132.517 147.716C132.001 147.717 131.486 147.719 130.971 147.721C129.552 147.725 128.133 147.726 126.714 147.728C125.184 147.73 123.655 147.734 122.125 147.737C118.43 147.746 114.734 147.751 111.038 147.755C109.994 147.756 108.95 147.758 107.906 147.759C101.424 147.767 94.9407 147.775 88.4579 147.779C86.9559 147.78 85.4539 147.781 83.9519 147.782C83.5786 147.782 83.2053 147.782 82.8207 147.783C76.776 147.787 70.7314 147.798 64.6867 147.812C58.4804 147.826 52.2741 147.834 46.0677 147.836C42.5833 147.837 39.0989 147.841 35.6145 147.852C32.6462 147.861 29.6781 147.865 26.7098 147.861C25.1961 147.86 23.6826 147.861 22.1689 147.869C20.7809 147.877 19.3932 147.876 18.0053 147.87C17.5053 147.869 17.0053 147.871 16.5054 147.876C11.8124 147.92 8.01366 146.758 4.57923 143.637C2.57724 141.639 1.51545 139.563 0.704527 136.925C0.642082 136.722 0.579636 136.52 0.5153 136.311C0.326798 135.469 0.307221 134.7 0.305987 133.839C0.304634 133.484 0.30328 133.129 0.301886 132.764C0.302192 132.374 0.302496 131.985 0.302811 131.583C0.301764 131.169 0.300718 130.755 0.29964 130.329C0.29711 129.179 0.296164 128.029 0.295904 126.879C0.295252 125.639 0.292596 124.399 0.290223 123.159C0.285439 120.447 0.283314 117.736 0.281763 115.024C0.28079 113.33 0.279302 111.636 0.277716 109.942C0.273421 105.252 0.269792 100.562 0.2686 95.8713C0.268523 95.5711 0.268443 95.2709 0.268363 94.9616C0.268287 94.6607 0.268212 94.3598 0.268132 94.0498C0.267976 93.44 0.267818 92.8302 0.267659 92.2204C0.267581 91.918 0.267503 91.6155 0.267423 91.3039C0.266033 86.4049 0.259885 81.5059 0.25168 76.6069C0.243322 71.576 0.238938 66.545 0.238528 61.514C0.238205 58.6899 0.236188 55.8657 0.229788 53.0415C0.224357 50.6362 0.222561 48.2308 0.225467 45.8255C0.226841 44.5989 0.226525 43.3723 0.22157 42.1458C0.21624 40.814 0.219157 39.4824 0.222833 38.1507C0.219995 37.7657 0.217157 37.3807 0.214233 36.9841C0.245279 32.1684 1.98488 28.4959 5.55754 25.0993C7.9997 23.2264 10.6269 22.5941 13.6207 21.8508C14.0877 21.7325 14.5546 21.6141 15.0215 21.4954C15.9953 21.2485 16.9696 21.0039 17.9445 20.761C19.1927 20.45 20.4396 20.1346 21.6861 19.8176C22.6482 19.5733 23.6107 19.3307 24.5735 19.0887C25.2566 18.9168 25.9394 18.744 26.6222 18.5711C27.0373 18.4679 27.4524 18.3648 27.88 18.2585C28.2449 18.1671 28.6098 18.0758 28.9857 17.9817C29.9409 17.7869 29.9409 17.7869 31.3499 17.7869C31.4464 17.54 31.5429 17.2932 31.6423 17.039C32.03 16.1639 32.4618 15.4405 33.0118 14.6511C33.2035 14.3744 33.3953 14.0978 33.5928 13.8127C33.7994 13.5183 34.006 13.224 34.2188 12.9206C34.4325 12.6141 34.6463 12.3076 34.8665 11.9918C35.3184 11.3448 35.7712 10.6983 36.2247 10.0523C36.9162 9.06642 37.6037 8.07813 38.2909 7.08957C38.7312 6.46017 39.1718 5.83092 39.6126 5.20182C39.817 4.90743 40.0214 4.61304 40.2321 4.30972C40.4271 4.03307 40.6222 3.75641 40.8231 3.47138C40.9923 3.22976 41.1615 2.98815 41.3358 2.73922C42.8343 0.869338 43.6808 0.125892 46.2187 0.124784Z" fill="#C14142"/>
<path d="M119.059 24.1632C120.243 24.3433 121.409 24.5337 122.569 24.8237C122.822 24.8865 123.075 24.9493 123.335 25.0141C123.737 25.1153 123.737 25.1153 124.146 25.2185C124.429 25.2893 124.713 25.3602 125.004 25.4332C125.603 25.5831 126.201 25.7334 126.799 25.8842C127.699 26.1109 128.6 26.3357 129.501 26.5603C131.189 26.9828 132.874 27.4153 134.558 27.8548C134.794 27.916 135.031 27.9772 135.275 28.0403C135.906 28.2057 136.536 28.3781 137.165 28.5509C137.508 28.6442 137.851 28.7375 138.204 28.8337C140.381 29.682 141.289 30.9617 142.283 32.9175C142.946 34.6391 142.902 36.3213 142.883 38.1371C142.886 38.5528 142.889 38.9686 142.892 39.3969C142.897 40.5424 142.895 41.6874 142.89 42.8329C142.886 44.0715 142.892 45.31 142.897 46.5486C142.905 48.9715 142.903 51.3944 142.898 53.8174C142.894 55.7873 142.893 57.7571 142.895 59.727C142.896 60.0078 142.896 60.2886 142.896 60.5779C142.897 61.1484 142.897 61.7189 142.898 62.2894C142.903 67.634 142.897 72.9784 142.888 78.323C142.88 82.9048 142.881 87.4866 142.889 92.0685C142.899 97.3944 142.902 102.72 142.897 108.046C142.896 108.615 142.896 109.183 142.895 109.751C142.895 110.031 142.895 110.311 142.894 110.599C142.893 112.565 142.896 114.532 142.9 116.498C142.905 118.896 142.903 121.294 142.894 123.692C142.889 124.915 142.887 126.137 142.893 127.36C142.9 128.687 142.892 130.014 142.883 131.341C142.887 131.725 142.891 132.108 142.895 132.504C142.86 135.233 142.26 137.524 140.28 139.581C138.285 141.369 136.165 142.086 133.451 142.08C133.09 142.081 133.09 142.081 132.722 142.083C131.921 142.084 131.12 142.079 130.319 142.073C129.734 142.073 129.148 142.073 128.562 142.074C126.998 142.074 125.433 142.068 123.868 142.061C122.399 142.055 120.929 142.055 119.46 142.054C115.165 142.049 110.871 142.035 106.576 142.022C96.9793 142.001 87.3821 141.981 77.4941 141.959C77.4941 111.171 77.4941 80.3831 77.4941 48.6621C78.8765 49.3206 80.105 50.0897 81.3688 50.9274C81.7357 51.1691 81.7357 51.1691 82.1099 51.4158C82.9205 51.9509 83.73 52.4876 84.5391 53.0249C84.8214 53.2124 85.1038 53.3999 85.3947 53.593C88.4843 55.6462 91.5667 57.7091 94.6441 59.7789C94.8847 59.9407 95.1253 60.1024 95.3732 60.2691C96.6425 61.1232 97.9102 61.9792 99.1765 62.8373C99.4423 63.017 99.7081 63.1967 99.9819 63.3818C100.485 63.7217 100.987 64.0622 101.488 64.4034C105.04 66.8029 107.827 68.6551 112.366 68.1269C115.142 67.2268 116.777 65.348 118.355 63.0929C118.828 61.2426 118.768 59.355 118.779 57.4619C118.783 57.1016 118.786 56.7412 118.79 56.3699C118.801 55.1824 118.81 53.9948 118.818 52.8073C118.826 51.9825 118.833 51.1577 118.841 50.3329C118.86 48.1647 118.877 45.9964 118.894 43.8281C118.912 41.6146 118.932 39.401 118.951 37.1874C118.989 32.846 119.025 28.5046 119.059 24.1632Z" fill="#FEFEFE"/>
<path d="M29.9409 24.4989C29.9417 24.6846 29.9426 24.8703 29.9434 25.0617C29.9643 29.5915 29.991 34.1212 30.0239 38.6509C30.0397 40.8415 30.0535 43.032 30.0629 45.2226C30.0721 47.3377 30.0863 49.4528 30.104 51.5678C30.1099 52.3737 30.114 53.1796 30.1162 53.9854C30.1196 55.1165 30.1295 56.2474 30.1408 57.3785C30.1403 57.7097 30.1398 58.0409 30.1393 58.3821C30.1825 61.4363 30.8395 63.9535 33.0836 66.2038C35.1092 67.8109 37.388 68.2767 39.973 68.2725C42.2377 67.9012 44.0221 66.7474 45.858 65.5051C46.0978 65.3454 46.3376 65.1858 46.5846 65.0213C47.1042 64.6749 47.6231 64.3276 48.1414 63.9795C48.9875 63.4115 49.8359 62.8468 50.6849 62.2828C54.9984 59.4152 59.296 56.5259 63.5873 53.628C70.9458 48.6621 70.9458 48.6621 71.5059 48.6621C71.5059 79.4501 71.5059 110.238 71.5059 141.959C61.9305 141.994 52.3552 142.028 42.4897 142.064C39.469 142.079 36.4484 142.095 33.3362 142.11C29.6405 142.118 29.6405 142.118 27.909 142.119C26.7026 142.121 25.4964 142.127 24.2901 142.136C22.7486 142.148 21.2074 142.151 19.6659 142.149C19.1018 142.149 18.5378 142.153 17.9739 142.159C14.86 142.193 12.0997 142.128 9.51063 140.281C8.67917 139.439 8.00624 138.596 7.39716 137.596C7.21645 137.332 7.03575 137.068 6.84957 136.796C6.1148 135.045 6.19471 133.423 6.20623 131.554C6.20458 131.145 6.20293 130.735 6.20124 130.314C6.19775 129.181 6.199 128.048 6.20228 126.915C6.20467 125.692 6.20098 124.469 6.19807 123.246C6.19337 120.85 6.19439 118.455 6.19745 116.06C6.19984 114.112 6.20016 112.165 6.19901 110.217C6.19885 109.94 6.19869 109.663 6.19852 109.377C6.19818 108.814 6.19784 108.251 6.19749 107.687C6.19448 102.405 6.19794 97.1225 6.20362 91.8401C6.20834 87.3109 6.20753 82.7817 6.20265 78.2525C6.19699 72.991 6.19477 67.7295 6.19802 62.468C6.19835 61.9064 6.19868 61.3448 6.19901 60.7832C6.19917 60.5069 6.19934 60.2306 6.19951 59.9459C6.20042 58.0022 6.19888 56.0585 6.19639 54.1148C6.19342 51.7438 6.19424 49.3729 6.19986 47.002C6.20263 45.793 6.20374 44.5842 6.20023 43.3752C6.19648 42.0627 6.20097 40.7502 6.20623 39.4376C6.20387 39.0583 6.20152 38.679 6.19909 38.2882C6.22354 35.1381 6.64846 32.4268 8.91347 30.0271C10.7878 28.4758 12.8479 28.0882 15.2126 27.5612C15.9723 27.3866 16.7318 27.2114 17.4912 27.0355C18.0558 26.905 18.0558 26.905 18.6319 26.7719C20.4609 26.3381 22.2737 25.8521 24.0858 25.3583C26.1117 24.8091 27.8343 24.4829 29.9409 24.4989Z" fill="#FEFEFE"/>
<path d="M44.7352 8.72559C45.8878 9.09164 46.018 9.23398 46.6712 10.1414C46.8366 10.3683 47.0021 10.5952 47.1726 10.8289C47.349 11.0762 47.5255 11.3234 47.7073 11.5782C48.0888 12.103 48.4704 12.6279 48.8521 13.1526C49.1436 13.5563 49.1436 13.5563 49.441 13.9682C50.3215 15.1844 51.2154 16.3914 52.1103 17.598C52.2835 17.8321 52.4567 18.0661 52.6352 18.3073C54.1124 20.3004 55.612 22.2778 57.1146 24.2536C58.5782 26.1804 60.0203 28.1208 61.4561 30.0665C62.7737 31.8492 64.1098 33.6187 65.4516 35.3849C65.6438 35.6389 65.8359 35.8929 66.0338 36.1546C66.8411 37.2216 67.6499 38.2864 68.4801 39.3374C68.7085 39.632 68.9369 39.9266 69.1722 40.2301C69.3639 40.4715 69.5555 40.7129 69.7529 40.9616C70.0969 41.6145 70.0969 41.6145 70.0276 42.2629C69.659 43.167 69.2196 43.4338 68.3797 43.9742C68.0938 44.1611 67.808 44.3479 67.5135 44.5405C67.2036 44.7378 66.8937 44.935 66.5744 45.1383C65.9249 45.5611 65.2754 45.9841 64.6261 46.4073C64.3 46.618 63.974 46.8286 63.6381 47.0457C62.3157 47.9047 61.0103 48.7857 59.7056 49.6689C57.2413 51.3297 54.7693 52.9799 52.2948 54.627C50.6043 55.7529 48.9191 56.8853 47.2385 58.0245C46.0558 58.8245 44.8682 59.6177 43.6784 60.4081C43.4808 60.5403 43.2832 60.6726 43.0796 60.8088C42.5565 61.156 42.0279 61.4955 41.4989 61.8344C41.0773 62.107 41.0773 62.107 40.6472 62.385C39.5375 62.8749 38.8993 62.9665 37.6903 62.7573C36.3381 61.6056 35.8293 60.8057 35.6604 59.0795C35.6296 58.4105 35.6085 57.7411 35.5949 57.0716C35.5811 56.7045 35.5673 56.3373 35.553 55.9591C35.5111 54.7425 35.4836 53.5262 35.4598 52.3091C35.4509 51.8892 35.442 51.4692 35.4328 51.0365C35.397 49.2625 35.3648 47.4886 35.3464 45.7144C35.3224 43.4291 35.2827 41.1469 35.1945 38.863C34.7574 27.3145 35.196 18.748 43.577 9.88414C44.3829 9.06119 44.3829 9.06119 44.7352 8.72559Z" fill="#FEFDFD"/>
<path d="M103.56 8.72559C107.428 10.1841 110.53 15.4285 112.269 18.8004C115.049 25.0289 113.965 32.8401 113.714 39.4896C113.628 41.8287 113.598 44.1677 113.569 46.5079C113.52 50.1429 113.447 53.7779 113.319 57.4112C113.311 57.765 113.302 58.1188 113.292 58.4833C113.279 58.8075 113.266 59.1318 113.253 59.4658C113.238 59.8872 113.238 59.8872 113.224 60.3171C113.037 61.2483 112.679 61.7254 112.014 62.4217C110.724 62.913 109.41 62.9846 108.122 62.4671C107.385 62.0203 106.709 61.5354 106.026 61.0164C105.501 60.6408 104.977 60.2655 104.452 59.8903C104.055 59.6 104.055 59.6 103.65 59.3038C102.411 58.4087 101.136 57.5644 99.8617 56.7165C99.3611 56.3803 98.8607 56.0438 98.3605 55.7071C98.1133 55.5409 97.8662 55.3746 97.6115 55.2034C96.8767 54.709 96.1422 54.2144 95.4077 53.7197C92.7071 51.9012 90.0016 50.0895 87.2909 48.2845C84.4819 46.414 81.6862 44.5266 78.9031 42.6213C79.1176 41.567 79.4739 40.8871 80.1428 40.0269C80.4183 39.6687 80.4183 39.6687 80.6994 39.3033C80.8985 39.0485 81.0976 38.7937 81.3028 38.5311C81.7236 37.9847 82.1442 37.438 82.5645 36.8912C82.7777 36.6146 82.991 36.338 83.2107 36.053C84.1386 34.8408 85.0439 33.6139 85.948 32.3855C87.5896 30.1605 89.2554 27.9531 90.9303 25.7508C92.3936 23.8243 93.8359 21.8843 95.271 19.9387C96.7763 17.9014 98.3067 15.8818 99.8479 13.8691C101.133 12.1837 102.36 10.4666 103.56 8.72559Z" fill="#FEFDFD"/>
<path d="M50.7234 6.04077C66.4159 6.04077 82.1085 6.04077 98.2766 6.04077C97.8863 7.52825 97.1824 8.4364 96.2292 9.62751C95.8732 10.0807 95.5178 10.5343 95.1628 10.9883C94.9785 11.2235 94.7942 11.4587 94.6043 11.7011C93.7095 12.8563 92.845 14.0312 91.9802 15.2069C90.5135 17.1965 89.0307 19.1741 87.5331 21.1428C85.8759 23.3217 84.2388 25.5129 82.6147 27.7143C81.0873 29.7812 79.535 31.8305 77.9743 33.8747C76.9603 35.2058 75.9744 36.547 75.0284 37.9229C73.9513 37.4796 73.3762 37.0731 72.7181 36.1505C72.5555 35.9263 72.3929 35.7021 72.2254 35.4712C72.0533 35.2281 71.8813 34.9851 71.704 34.7346C71.3279 34.2148 70.9513 33.6953 70.5744 33.1759C70.3802 32.907 70.186 32.6381 69.986 32.361C69.0295 31.0484 68.0443 29.756 67.0588 28.4631C66.6739 27.9567 66.2891 27.4503 65.9044 26.9437C65.7201 26.7011 65.5358 26.4584 65.3459 26.2085C64.128 24.6015 62.9214 22.987 61.714 21.3729C60.9866 20.4008 60.258 19.4294 59.5295 18.458C59.236 18.0665 58.9425 17.6749 58.6489 17.2834C58.5036 17.0896 58.3583 16.8958 58.2086 16.6961C57.5482 15.8151 57.5482 15.8151 56.8877 14.9342C56.7421 14.7401 56.5965 14.5459 56.4465 14.3459C56.1556 13.9578 55.865 13.5695 55.5745 13.1811C54.8019 12.1486 54.0248 11.1194 53.2414 10.0942C53.0779 9.87919 52.9145 9.66419 52.7461 9.44266C52.4309 9.02835 52.1145 8.61492 51.7966 8.20251C50.7234 6.78746 50.7234 6.78746 50.7234 6.04077Z" fill="#E5EAF2" fill-opacity="0.99"/>
</g>
<defs>
<clipPath id="clip0_11_47">
<rect width="149" height="148" fill="white"/>
</clipPath>
</defs>
</svg>
