<svg width="31" height="24" viewBox="0 0 31 24" fill="none" xmlns="http://www.w3.org/2000/svg">
<path d="M26.2739 13.7512V22.683C26.2739 23.0055 26.1561 23.2846 25.9204 23.5203C25.6847 23.756 25.4056 23.8739 25.083 23.8739H17.9376V16.7285H13.174V23.8739H6.02859C5.70606 23.8739 5.42695 23.756 5.19124 23.5203C4.95554 23.2846 4.83769 23.0055 4.83769 22.683V13.7512C4.83769 13.7388 4.8408 13.7202 4.847 13.6954C4.85319 13.6706 4.8563 13.652 4.8563 13.6396L15.5558 4.81943L26.2553 13.6396C26.2677 13.6644 26.2739 13.7016 26.2739 13.7512ZM30.4235 12.4673L29.2698 13.8442C29.1706 13.9559 29.0403 14.0241 28.879 14.0489H28.8232C28.6619 14.0489 28.5317 14.0055 28.4325 13.9187L15.5558 3.18194L2.67918 13.9187C2.53032 14.0179 2.38146 14.0613 2.23259 14.0489C2.07132 14.0241 1.94106 13.9559 1.84183 13.8442L0.688141 12.4673C0.588905 12.3432 0.545474 12.1974 0.557886 12.03C0.570297 11.8625 0.638513 11.7291 0.762572 11.6299L14.1416 0.483804C14.5386 0.161274 15.01 0 15.5558 0C16.1016 0 16.5731 0.161274 16.97 0.483804L21.5103 4.27981V0.651275C21.5103 0.477608 21.5662 0.334941 21.6778 0.223294C21.7894 0.111647 21.9321 0.0558236 22.1058 0.0558236H25.6785C25.8522 0.0558236 25.9948 0.111647 26.1065 0.223294C26.2181 0.334941 26.2739 0.477608 26.2739 0.651275V8.24328L30.3491 11.6299C30.4731 11.7291 30.5413 11.8625 30.5537 12.03C30.5662 12.1974 30.5227 12.3432 30.4235 12.4673Z" fill="black"/>
</svg>
