<svg width="10" height="20" viewBox="0 0 10 20" fill="none" xmlns="http://www.w3.org/2000/svg">
<path d="M7.5 7.5C7.5 6.80989 7.25586 6.2207 6.76758 5.73242C6.2793 5.24414 5.69011 5 5 5C4.30989 5 3.7207 5.24414 3.23242 5.73242C2.74414 6.2207 2.5 6.80989 2.5 7.5C2.5 8.19011 2.74414 8.7793 3.23242 9.26758C3.7207 9.75586 4.30989 10 5 10C5.69011 10 6.2793 9.75586 6.76758 9.26758C7.25586 8.7793 7.5 8.19011 7.5 7.5ZM10 7.5C10 8.20964 9.89258 8.79231 9.67773 9.24805L6.12305 16.8066C6.01888 17.0215 5.86426 17.1908 5.65918 17.3145C5.4541 17.4382 5.23438 17.5 5 17.5C4.76562 17.5 4.5459 17.4382 4.34082 17.3145C4.13574 17.1908 3.98438 17.0215 3.88672 16.8066L0.322266 9.24805C0.107422 8.79231 0 8.20964 0 7.5C0 6.11979 0.488281 4.94141 1.46484 3.96484C2.44141 2.98828 3.61979 2.5 5 2.5C6.38021 2.5 7.55859 2.98828 8.53516 3.96484C9.51172 4.94141 10 6.11979 10 7.5Z" fill="black"/>
</svg>
