<svg width="455" height="455" viewBox="0 0 455 455" fill="none" xmlns="http://www.w3.org/2000/svg">
<g clip-path="url(#clip0_12_76)">
<path d="M34.6742 178.86C35.889 178.855 37.1038 178.849 38.3553 178.843C39.7156 178.842 41.0758 178.841 42.4361 178.839C43.8717 178.835 45.3073 178.83 46.7428 178.824C50.702 178.81 54.6612 178.803 58.6204 178.796C62.0128 178.79 65.4053 178.78 68.7977 178.769C79.9769 178.736 91.1562 178.715 102.335 178.696C105.246 178.691 108.156 178.687 111.066 178.681C129.131 178.651 147.197 178.624 165.262 178.607C169.448 178.603 173.634 178.599 177.82 178.595C179.381 178.594 179.381 178.594 180.973 178.592C197.829 178.575 214.685 178.534 231.541 178.483C248.84 178.431 266.138 178.402 283.436 178.395C293.152 178.39 302.867 178.375 312.582 178.335C320.856 178.301 329.13 178.287 337.404 178.3C341.626 178.305 345.848 178.301 350.069 178.271C353.936 178.244 357.802 178.244 361.669 178.267C363.066 178.27 364.463 178.263 365.86 178.245C373.262 178.155 378.87 178.237 384.52 183.395C389.31 188.59 389.432 192.664 389.381 199.482C389.386 200.442 389.39 201.402 389.395 202.391C389.407 205.609 389.398 208.827 389.388 212.045C389.392 214.351 389.398 216.657 389.404 218.963C389.418 225.23 389.413 231.496 389.403 237.763C389.395 244.317 389.402 250.871 389.407 257.425C389.414 269.139 389.404 280.853 389.388 292.567C389.375 303.184 389.377 313.802 389.391 324.419C389.407 336.752 389.413 349.084 389.404 361.416C389.4 367.943 389.399 374.47 389.409 380.997C389.418 387.135 389.412 393.271 389.394 399.409C389.39 401.662 389.391 403.915 389.398 406.169C389.406 409.243 389.396 412.317 389.381 415.391C389.388 416.284 389.394 417.178 389.401 418.098C389.347 423.844 388.55 428.268 384.465 432.645C379.961 436.089 377.939 437.125 372.307 437.137C370.479 437.145 370.479 437.145 368.614 437.152C367.249 437.153 365.884 437.154 364.519 437.154C363.079 437.158 361.638 437.162 360.198 437.167C356.226 437.179 352.253 437.185 348.28 437.189C344.002 437.195 339.723 437.207 335.444 437.218C325.103 437.242 314.761 437.257 304.42 437.27C301.5 437.273 298.581 437.277 295.661 437.282C277.539 437.307 259.417 437.329 241.295 437.341C237.096 437.344 232.897 437.347 228.698 437.35C227.654 437.351 226.61 437.352 225.535 437.352C208.623 437.365 191.712 437.398 174.8 437.44C157.446 437.482 140.093 437.506 122.739 437.511C112.992 437.515 103.245 437.526 93.4976 437.559C85.197 437.587 76.8967 437.598 68.5961 437.587C64.3602 437.582 60.1248 437.585 55.889 437.61C52.0106 437.632 48.1329 437.631 44.2545 437.612C42.852 437.61 41.4495 437.615 40.0471 437.63C28.2847 437.748 28.2847 437.748 23.8053 434.837C18.8749 429.851 17.6634 425.894 17.5941 419.077C17.6002 418.18 17.6062 417.283 17.6124 416.359C17.607 415.395 17.6016 414.43 17.596 413.436C17.5817 410.207 17.5889 406.979 17.596 403.75C17.5903 401.434 17.5833 399.118 17.5752 396.801C17.5572 390.512 17.5584 384.223 17.5641 377.934C17.5672 372.685 17.5611 367.437 17.5551 362.188C17.5402 349.1 17.5439 336.011 17.556 322.923C17.5659 311.559 17.5529 300.196 17.529 288.832C17.5046 277.159 17.4954 265.486 17.5017 253.812C17.505 247.261 17.5026 240.709 17.4854 234.157C17.47 227.998 17.4739 221.839 17.4927 215.68C17.4964 213.418 17.4933 211.157 17.4828 208.895C17.4697 205.81 17.4811 202.726 17.4988 199.641C17.4892 198.744 17.4796 197.847 17.4697 196.923C17.5344 191.456 18.3606 188.338 22 184C26.4652 180.066 28.7725 178.876 34.6742 178.86Z" fill="#FEFEFE"/>
<path d="M285.211 6.57719C289.324 9.84852 292.899 13.7434 296.562 17.5C298.228 19.2003 299.896 20.8983 301.566 22.5938C302.298 23.3434 303.03 24.093 303.783 24.8653C305.944 27.0296 305.944 27.0296 308.34 28.7754C311.276 31.2305 313.602 33.9203 316.085 36.8208C319.419 40.6151 323.019 44.1413 326.602 47.6993C327.401 48.4973 328.201 49.2954 329.024 50.1177C331.555 52.6433 334.09 55.1655 336.625 57.6875C338.334 59.3911 340.042 61.0949 341.75 62.7989C345.512 66.5507 349.275 70.3003 353.041 74.0479C354.429 75.4314 355.815 76.8172 357.2 78.2047C361.006 82.0042 364.833 85.7826 368.658 89.563C377.44 98.2465 386.206 106.945 394.964 115.653C400.259 120.917 405.559 126.175 410.873 131.42C415.523 136.01 420.162 140.611 424.789 145.224C427.232 147.66 429.68 150.09 432.142 152.507C434.889 155.211 437.617 157.934 440.342 160.661C441.148 161.446 441.955 162.23 442.785 163.039C448.963 169.284 453.102 175.978 454.664 184.715C454.477 200.106 448.309 208.542 438 219C436.799 220.343 435.61 221.695 434.437 223.063C431.672 226.252 428.845 229.381 426 232.5C420.81 238.19 420.81 238.19 415.776 244.017C414 246 414 246 412.175 247.547C407.574 251.744 406.484 255.167 406.134 261.355C406.076 264.362 406.107 267.364 406.145 270.371C406.141 272.032 406.133 273.694 406.122 275.355C406.102 279.851 406.125 284.347 406.154 288.843C406.177 293.558 406.159 298.273 406.145 302.988C406.124 311.919 406.137 320.851 406.164 329.782C406.21 345.769 406.194 361.756 406.172 377.743C406.166 383.349 406.173 388.954 406.192 394.56C406.202 398.053 406.204 401.547 406.205 405.04C406.207 406.654 406.212 408.267 406.222 409.881C406.298 423.451 405.484 434.419 396.215 445.047C387.164 453.744 376.393 454.592 364.381 454.508C362.927 454.513 361.473 454.519 360.018 454.527C356.049 454.543 352.08 454.535 348.111 454.523C343.82 454.514 339.528 454.528 335.237 454.539C326.842 454.557 318.447 454.553 310.051 454.541C303.227 454.532 296.402 454.531 289.578 454.535C288.605 454.536 287.633 454.537 286.631 454.537C284.655 454.538 282.679 454.54 280.703 454.541C262.19 454.552 243.678 454.539 225.166 454.518C209.291 454.5 193.416 454.503 177.541 454.522C159.092 454.543 140.642 454.551 122.193 454.539C120.225 454.538 118.257 454.537 116.288 454.535C115.32 454.535 114.352 454.534 113.354 454.533C106.539 454.53 99.7248 454.536 92.91 454.545C84.6028 454.556 76.2958 454.553 67.9886 454.532C63.7523 454.522 59.5164 454.517 55.2801 454.531C51.3983 454.543 47.5169 454.536 43.6352 454.515C42.2349 454.51 40.8346 454.513 39.4344 454.522C26.7748 454.604 18.3654 452.184 9.13278 443.371C6.25394 440.171 4.43638 437.036 2.99997 433C2.49121 431.752 2.4912 431.752 1.97217 430.479C0.72498 426.016 0.713461 421.934 0.725828 417.324C0.720591 416.355 0.715354 415.387 0.709959 414.389C0.694968 411.146 0.694239 407.904 0.693571 404.662C0.685949 402.335 0.677536 400.009 0.668363 397.683C0.646415 391.365 0.637618 385.046 0.632536 378.728C0.628892 374.778 0.622624 370.828 0.615507 366.879C0.596052 355.931 0.579566 344.983 0.576658 334.035C0.576471 333.335 0.576272 332.635 0.576078 331.914C0.575712 330.495 0.575341 329.075 0.57498 327.656C0.574797 326.952 0.574619 326.248 0.57443 325.522C0.57425 324.817 0.574067 324.112 0.573881 323.385C0.570342 311.967 0.543324 300.549 0.505918 289.131C0.467771 277.393 0.448481 265.654 0.448179 253.915C0.447387 247.331 0.438679 240.746 0.410185 234.162C0.383966 227.965 0.381836 221.768 0.397856 215.571C0.399667 213.302 0.392981 211.034 0.377012 208.765C0.287829 195.267 0.671939 185.306 8.12497 173.688C13.2242 168.921 20.2944 163.081 27.5621 162.956C29.1007 163.01 29.1007 163.01 30.6704 163.064C36.5224 163.24 42.3716 163.35 48.2258 163.408C51.7601 163.447 55.2884 163.516 58.8203 163.655C76.0946 164.784 76.0946 164.784 91.4716 158.359C95.1525 154.92 98.2497 151.153 101.269 147.13C103.626 144.23 106.334 141.916 109.189 139.52C111.395 137.668 113.42 135.678 115.437 133.625C116.188 132.867 116.938 132.109 117.711 131.328C118.466 130.56 119.222 129.792 120 129C128.423 120.434 128.423 120.434 132.906 116.594C138.047 112.176 142.744 107.324 147.5 102.5C152.864 97.0588 158.221 91.7229 164.025 86.752C167.859 83.3503 171.408 79.6534 175 76C183.422 67.434 183.422 67.434 187.937 63.5625C192.889 59.307 197.421 54.6488 202 50C207.182 44.7397 212.371 39.6075 217.977 34.8008C221.998 31.2218 225.725 27.3355 229.5 23.5C245.111 7.63829 245.111 7.63829 251.75 4.12504C252.467 3.73575 253.183 3.34645 253.922 2.94536C263.964 -1.62258 276.309 0.483854 285.211 6.57719ZM20.6875 185.625C17.5281 190.072 17.849 193.844 17.8461 199.146C17.8417 200.106 17.8373 201.066 17.8328 202.055C17.8194 205.291 17.8132 208.528 17.8071 211.764C17.7992 214.077 17.7909 216.389 17.7823 218.701C17.7561 226.314 17.7408 233.927 17.7265 241.539C17.7212 244.157 17.7158 246.775 17.7104 249.393C17.6888 260.283 17.6699 271.172 17.6588 282.062C17.6559 284.888 17.6529 287.715 17.6499 290.542C17.6491 291.244 17.6484 291.947 17.6476 292.671C17.635 304.046 17.6017 315.422 17.5601 326.797C17.5176 338.477 17.4945 350.157 17.4889 361.837C17.4852 368.394 17.4732 374.952 17.4408 381.509C17.4107 387.68 17.4043 393.85 17.4161 400.021C17.4164 402.285 17.408 404.549 17.3905 406.813C17.3678 409.906 17.3761 412.998 17.392 416.092C17.3781 416.986 17.3642 417.879 17.3499 418.8C17.4268 424.884 18.8107 429.451 23 434C26.7629 436.787 29.4196 437.376 34.0645 437.38C35.9027 437.393 35.9027 437.393 37.778 437.406C39.1347 437.4 40.4915 437.394 41.8482 437.388C43.2919 437.392 44.7357 437.397 46.1794 437.404C50.1471 437.419 54.1146 437.414 58.0824 437.407C62.3613 437.402 66.6401 437.415 70.919 437.425C79.3018 437.442 87.6845 437.443 96.0673 437.438C102.88 437.434 109.692 437.435 116.504 437.44C117.473 437.441 118.442 437.442 119.441 437.443C121.409 437.444 123.377 437.446 125.346 437.447C143.811 437.461 162.277 437.456 180.742 437.444C197.641 437.434 214.54 437.447 231.44 437.471C248.786 437.495 266.131 437.505 283.477 437.498C293.218 437.495 302.959 437.497 312.7 437.515C320.992 437.529 329.284 437.53 337.576 437.513C341.808 437.504 346.039 437.502 350.271 437.517C354.144 437.531 358.017 437.526 361.89 437.507C363.291 437.503 364.693 437.506 366.095 437.517C375.91 437.782 375.91 437.782 384 433C387.511 429.109 389.121 426.222 389.134 420.978C389.141 419.746 389.141 419.746 389.148 418.49C389.148 417.589 389.147 416.687 389.147 415.758C389.153 414.321 389.153 414.321 389.158 412.855C389.169 409.631 389.173 406.407 389.177 403.182C389.183 400.876 389.19 398.571 389.197 396.265C389.214 389.99 389.225 383.715 389.233 377.44C389.238 373.522 389.244 369.604 389.251 365.686C389.267 354.839 389.282 343.991 389.289 333.144C389.291 330.329 389.293 327.515 389.295 324.7C389.296 324.001 389.296 323.301 389.297 322.581C389.305 311.246 389.33 299.911 389.363 288.576C389.396 276.939 389.413 265.302 389.417 253.665C389.419 247.131 389.428 240.598 389.453 234.064C389.477 227.918 389.481 221.773 389.471 215.628C389.47 213.371 389.477 211.115 389.49 208.858C389.508 205.779 389.501 202.702 389.488 199.623C389.499 198.728 389.51 197.833 389.521 196.911C389.455 190.58 388.016 187.297 383.672 182.548C378.047 177.506 371.081 178.306 363.949 178.372C362.508 178.367 361.067 178.36 359.625 178.35C355.673 178.331 351.722 178.344 347.77 178.361C343.505 178.374 339.24 178.359 334.974 178.347C326.623 178.329 318.271 178.337 309.919 178.355C303.132 178.369 296.345 178.373 289.558 178.37C288.592 178.369 287.626 178.369 286.631 178.368C284.669 178.367 282.706 178.366 280.744 178.365C263.394 178.357 246.043 178.373 228.693 178.403C211.854 178.432 195.016 178.439 178.177 178.424C159.842 178.407 141.507 178.403 123.172 178.42C121.218 178.422 119.263 178.424 117.308 178.426C116.346 178.427 115.385 178.428 114.394 178.429C107.614 178.434 100.834 178.431 94.0538 178.424C85.7928 178.417 77.532 178.423 69.2711 178.448C65.0557 178.461 60.8405 178.467 56.625 178.456C52.7667 178.446 48.9088 178.454 45.0505 178.478C43.6543 178.483 42.258 178.481 40.8618 178.472C31.7213 178.418 26.8663 178.611 20.6875 185.625Z" fill="#C14143"/>
<path d="M86.2774 210.469C87.8549 210.466 89.4323 210.462 91.0098 210.457C94.3038 210.451 97.5974 210.46 100.891 210.479C105.089 210.501 109.285 210.488 113.482 210.464C116.736 210.45 119.99 210.455 123.245 210.465C124.791 210.467 126.337 210.464 127.884 210.455C137.807 210.408 146.31 210.964 154.621 216.859C155.221 217.483 155.82 218.107 156.438 218.75C157.364 219.67 157.364 219.67 158.309 220.609C163.509 227.959 163.467 235.419 163.469 244.117C163.48 245.996 163.48 245.996 163.492 247.912C163.503 250.553 163.507 253.194 163.501 255.835C163.496 258.525 163.51 261.215 163.542 263.905C163.585 267.809 163.594 271.713 163.594 275.617C163.61 276.809 163.627 278.001 163.644 279.229C163.575 287.614 162.09 294.622 156.215 300.911C150.617 306.083 145.038 308.453 137.393 308.42C136.287 308.433 136.287 308.433 135.159 308.446C132.735 308.469 130.311 308.47 127.887 308.469C126.191 308.476 124.494 308.484 122.798 308.492C119.247 308.505 115.695 308.507 112.144 308.501C107.611 308.495 103.08 308.526 98.5471 308.566C95.0441 308.592 91.5414 308.595 88.0384 308.591C86.3683 308.593 84.6983 308.603 83.0284 308.62C72.5964 308.72 64.5409 308.319 56.6602 300.754C56.133 300.031 55.6058 299.308 55.0626 298.563C54.5173 297.842 53.972 297.121 53.4102 296.379C50.6838 291.78 49.7503 287.427 49.7096 282.122C49.6968 280.987 49.684 279.852 49.6709 278.683C49.6687 277.47 49.6664 276.257 49.6642 275.008C49.6575 273.748 49.6508 272.488 49.644 271.19C49.6339 268.529 49.6283 265.868 49.6295 263.207C49.6297 259.815 49.6024 256.424 49.5679 253.033C49.5402 249.775 49.5415 246.516 49.5392 243.258C49.5248 242.049 49.5104 240.841 49.4956 239.596C49.5418 231.024 50.8883 224.534 57.1876 218.25C57.6968 217.719 58.206 217.188 58.7306 216.641C67.3328 210.422 76.0197 210.407 86.2774 210.469Z" fill="#C14142"/>
<path d="M302.964 48.1748C305.395 49.1601 306.722 50.348 308.575 52.2029C309.256 52.8771 309.936 53.5513 310.637 54.2459C311.722 55.3443 311.722 55.3443 312.828 56.4649C313.577 57.2134 314.326 57.9619 315.098 58.7331C316.678 60.3158 318.255 61.9022 319.828 63.492C322.246 65.9333 324.677 68.3609 327.109 70.7871C328.641 72.3248 330.173 73.8631 331.703 75.4024C332.8 76.4977 332.8 76.4977 333.919 77.6152C334.92 78.6312 334.92 78.6312 335.942 79.6677C336.83 80.5626 336.83 80.5626 337.736 81.4755C339 83 339 83 339 85C337.533 86.4607 337.533 86.4607 335.504 88.1524C331.184 91.8269 327.052 95.6608 322.938 99.5625C321.439 100.978 319.94 102.394 318.441 103.809C317.696 104.512 316.952 105.216 316.184 105.941C312.925 109.014 309.651 112.071 306.375 115.125C305.766 115.693 305.157 116.261 304.53 116.845C303.304 117.988 302.078 119.131 300.852 120.273C298.962 122.035 297.075 123.799 295.188 125.563C285.078 135.01 285.078 135.01 280.73 139.02C280.239 139.475 279.747 139.931 279.24 140.401C278.181 141.371 277.113 142.33 276.032 143.274C273.026 145.936 270.504 148.575 268.16 151.84C263.497 157.835 258.823 162.204 251.204 163.791C241.048 165.002 230.716 164.443 220.525 164.03C216.289 163.875 212.051 163.808 207.812 163.732C199.538 163.573 191.27 163.318 183 163C184.419 160.033 185.724 158.073 188.168 155.855C188.807 155.268 189.445 154.681 190.104 154.076C190.791 153.453 191.479 152.83 192.188 152.188C198.545 146.338 204.73 140.361 210.774 134.188C213.693 131.227 216.656 128.395 219.812 125.688C224.8 121.383 229.379 116.691 234 112C239.193 106.728 244.393 101.585 250.013 96.7691C254.63 92.6593 258.864 88.1299 263.172 83.7012C264.259 82.5981 264.259 82.5981 265.367 81.4727C266.343 80.4712 266.343 80.4712 267.339 79.4495C269 78 269 78 271 78C271 77.34 271 76.68 271 76C272.405 74.6184 272.405 74.6184 274.387 72.9883C279.478 68.6597 284.127 63.9466 288.812 59.1875C290.483 57.4912 292.156 55.7971 293.832 54.1055C294.561 53.3645 295.291 52.6236 296.042 51.8601C300.182 47.9272 300.182 47.9272 302.964 48.1748Z" fill="#E5EAF2"/>
<path d="M266.375 17.625C267.748 17.5825 267.748 17.5825 269.148 17.5391C275.494 18.5648 280.024 23.6356 284.438 28C285.268 28.7812 285.268 28.7812 286.115 29.5781C289.98 33.3899 289.98 33.3899 290.07 36.1367C288.768 38.4033 287.325 39.999 285.438 41.8125C284.797 42.4377 284.156 43.0629 283.496 43.707C281.456 45.5814 279.385 47.393 277.285 49.1992C272.634 53.2503 268.322 57.6039 264 62C255.578 70.5661 255.578 70.5661 251.062 74.4375C246.111 78.6931 241.579 83.3513 237 88C231.808 93.2705 226.609 98.4143 220.992 103.23C217.154 106.64 213.598 110.341 210 114C201.578 122.566 201.578 122.566 197.062 126.438C192.111 130.693 187.579 135.351 183 140C177.811 145.268 172.648 150.473 166.984 155.234C165.032 156.862 165.032 156.862 163.829 158.517C161.631 161.19 160.025 162.778 156.576 163.524C153.598 163.694 150.677 163.675 147.695 163.586C146.616 163.577 145.537 163.569 144.425 163.56C140.991 163.527 137.559 163.451 134.125 163.375C131.792 163.345 129.458 163.318 127.125 163.293C121.416 163.227 115.708 163.127 110 163C110.933 161.901 111.868 160.803 112.803 159.705C113.324 159.093 113.844 158.482 114.38 157.852C116.923 154.945 119.635 152.22 122.375 149.5C122.901 148.97 123.427 148.44 123.969 147.895C126.839 145.031 129.777 142.3 132.852 139.656C137.465 135.663 141.724 131.349 146 127C154.423 118.433 154.423 118.433 158.906 114.594C164.047 110.176 168.744 105.324 173.5 100.5C178.854 95.069 184.201 89.7447 189.994 84.7832C194.011 81.2119 197.731 77.3294 201.5 73.5C210.454 64.4026 210.454 64.4026 214.969 60.5312C219.912 56.2881 224.431 51.6382 229 47C234.266 41.6537 239.541 36.4263 245.24 31.5415C248.592 28.6057 251.617 25.3455 254.703 22.1367C258.496 18.6084 261.212 17.6973 266.375 17.625Z" fill="#FEFCFC"/>
<path d="M350.876 96.2404C353.423 97.1515 354.67 98.2957 356.581 100.206C357.273 100.892 357.966 101.578 358.679 102.284C359.429 103.041 360.178 103.798 360.95 104.577C361.747 105.371 362.544 106.165 363.365 106.982C366.004 109.612 368.631 112.253 371.258 114.895C373.085 116.723 374.913 118.55 376.742 120.377C380.575 124.21 384.402 128.048 388.226 131.89C392.645 136.33 397.072 140.761 401.505 145.187C405.77 149.447 410.03 153.712 414.287 157.981C416.098 159.796 417.911 161.609 419.725 163.422C422.258 165.954 424.784 168.494 427.309 171.035C428.062 171.785 428.816 172.536 429.592 173.31C430.622 174.351 430.622 174.351 431.673 175.413C432.271 176.012 432.869 176.612 433.484 177.23C436.526 180.782 437.31 183.741 437.375 188.375C437.403 189.29 437.432 190.206 437.461 191.149C436.476 197.245 431.794 201.529 427.688 205.875C426.705 206.93 425.723 207.986 424.742 209.043C424.27 209.55 423.798 210.057 423.312 210.58C421.612 212.421 419.957 214.297 418.312 216.188C417.779 216.8 417.245 217.412 416.695 218.043C415.415 219.521 414.14 221.004 412.867 222.488C411.788 223.732 411.788 223.732 410.688 225C409.703 226.145 409.703 226.145 408.699 227.313C407 229 407 229 405 229C405.001 227.791 405.002 226.581 405.003 225.335C405 220.795 404.957 216.255 404.902 211.715C404.884 209.76 404.877 207.805 404.88 205.85C404.906 188.13 404.906 188.13 396.256 173.029C392.205 169.08 387.19 167.061 382 165C381.34 164.67 380.68 164.34 380 164C378.645 163.897 377.284 163.854 375.925 163.842C375.073 163.832 374.22 163.822 373.342 163.812C372.404 163.806 371.467 163.801 370.501 163.795C369.023 163.78 369.023 163.78 367.515 163.765C364.247 163.733 360.979 163.708 357.711 163.684C355.449 163.663 353.188 163.642 350.926 163.621C344.965 163.565 339.004 163.516 333.043 163.468C326.963 163.418 320.884 163.362 314.805 163.307C302.87 163.199 290.935 163.098 279 163C279 162.34 279 161.68 279 161C280.467 159.539 280.467 159.539 282.496 157.848C286.816 154.173 290.948 150.339 295.063 146.438C296.561 145.022 298.06 143.607 299.559 142.192C300.304 141.488 301.048 140.784 301.816 140.059C305.075 136.987 308.349 133.929 311.625 130.875C312.235 130.306 312.846 129.737 313.475 129.15C314.702 128.006 315.93 126.862 317.157 125.718C319.647 123.397 322.136 121.074 324.623 118.751C325.864 117.593 327.107 116.437 328.351 115.283C331.652 112.217 334.914 109.12 338.137 105.973C338.815 105.319 339.493 104.664 340.191 103.99C341.497 102.73 342.793 101.459 344.078 100.178C344.665 99.6152 345.251 99.0525 345.855 98.4728C346.367 97.9701 346.879 97.4674 347.407 96.9496C349 96.0001 349 96.0001 350.876 96.2404Z" fill="#FEFCFC"/>
<path d="M67.9884 388.369C69.3226 388.364 70.6567 388.357 71.9908 388.347C75.6066 388.329 79.2217 388.342 82.8375 388.361C86.6233 388.378 90.409 388.369 94.1948 388.364C100.551 388.359 106.907 388.375 113.263 388.403C120.611 388.435 127.958 388.435 135.306 388.418C142.377 388.402 149.447 388.409 156.518 388.426C159.527 388.433 162.535 388.432 165.543 388.424C169.743 388.415 173.941 388.439 178.141 388.467C180.015 388.457 180.015 388.457 181.927 388.447C183.07 388.46 184.212 388.472 185.389 388.485C186.382 388.488 187.375 388.491 188.398 388.494C191.717 389.139 192.908 390.401 195 393C195.566 395 195.566 395 195.562 397C195.584 397.66 195.606 398.32 195.629 399C194.646 402.124 192.663 403.197 190 405C187.29 405.506 187.29 405.506 184.307 405.515C182.604 405.534 182.604 405.534 180.866 405.553C179.63 405.547 178.393 405.54 177.119 405.533C175.81 405.542 174.5 405.551 173.151 405.56C169.566 405.582 165.982 405.579 162.397 405.57C159.403 405.565 156.408 405.572 153.413 405.58C146.349 405.597 139.284 405.593 132.219 405.576C124.934 405.56 117.649 405.575 110.364 405.608C104.105 405.634 97.8457 405.642 91.5864 405.633C87.8499 405.628 84.1137 405.63 80.3772 405.651C76.2113 405.673 72.0466 405.654 67.8808 405.631C66.6442 405.643 65.4077 405.655 64.1337 405.667C54.8354 405.563 54.8354 405.563 51.7339 402.648C49.5791 399.357 49.1965 397.856 49.9999 394C54.3987 387.256 60.5435 388.299 67.9884 388.369Z" fill="#C14042"/>
<path d="M115 228C123.91 228 132.82 228 142 228C147.626 233.626 147.626 233.626 147.631 238.354C147.644 239.398 147.656 240.443 147.669 241.519C147.656 242.637 147.643 243.755 147.629 244.906C147.631 246.064 147.634 247.221 147.636 248.414C147.635 250.858 147.622 253.302 147.597 255.747C147.563 259.487 147.576 263.225 147.596 266.965C147.589 269.341 147.579 271.717 147.566 274.094C147.571 275.212 147.576 276.329 147.581 277.481C147.464 285.227 147.464 285.227 145.09 289.182C136.336 296.799 131.053 292 115 292C115 270.88 115 249.76 115 228Z" fill="#E5EAF2"/>
<path d="M66.0001 260C76.8901 260 87.7801 260 99.0001 260C99.0001 270.56 99.0001 281.12 99.0001 292C94.4832 292.124 89.9663 292.248 85.3126 292.375C83.8963 292.43 82.48 292.484 81.0208 292.541C70.6688 292.678 70.6688 292.678 67.6251 289.812C64.5966 284.777 65.4906 278.263 65.6876 272.625C65.7907 268.459 65.8938 264.293 66.0001 260Z" fill="#E5E7EF"/>
<path d="M301.402 340.596C302.507 340.583 303.611 340.57 304.75 340.557C306.54 340.562 306.54 340.562 308.367 340.566C309.594 340.561 310.821 340.556 312.085 340.55C314.682 340.544 317.28 340.545 319.877 340.554C323.852 340.562 327.826 340.534 331.801 340.502C334.323 340.5 336.845 340.501 339.367 340.504C340.557 340.493 341.747 340.481 342.972 340.47C351.191 340.539 351.191 340.539 355.25 342.851C357 345 357 345 357.625 347.875C356.808 351.958 355.418 354.639 352 357C347.893 357.912 343.849 357.841 339.656 357.797C337.853 357.805 337.853 357.805 336.014 357.814C333.476 357.818 330.937 357.807 328.399 357.782C324.513 357.75 320.632 357.782 316.746 357.82C314.279 357.816 311.811 357.809 309.344 357.797C308.182 357.809 307.021 357.821 305.824 357.834C298.038 357.698 298.038 357.698 295.126 355.74C292.553 352.868 292 351.177 292 347.312C293.689 341.718 295.654 340.628 301.402 340.596Z" fill="#C24345"/>
<path d="M59.4177 340.612C60.5257 340.602 61.6338 340.593 62.7754 340.583C63.9723 340.589 65.1692 340.595 66.4023 340.602C68.2462 340.597 68.2462 340.597 70.1273 340.593C73.3958 340.59 76.6639 340.602 79.9323 340.619C83.2512 340.629 86.5699 340.606 89.8887 340.59C92.4141 340.592 94.9395 340.596 97.4648 340.602C98.6597 340.596 99.8546 340.59 101.086 340.583C102.752 340.597 102.752 340.597 104.453 340.612C105.918 340.615 105.918 340.615 107.413 340.619C110.43 341.063 111.811 341.907 114 344C114.496 346.156 114.496 346.156 114.438 348.5C114.436 349.274 114.435 350.047 114.434 350.844C113.901 353.492 113.119 354.365 111 356C108.028 356.991 105.979 357.155 102.874 357.209C101.306 357.238 101.306 357.238 99.7077 357.267C94.9399 357.325 90.1723 357.374 85.4043 357.405C82.8882 357.427 80.3722 357.461 77.8564 357.508C74.2295 357.574 70.6041 357.602 66.9766 357.621C65.8525 357.649 64.7284 357.677 63.5702 357.706C56.0167 357.686 56.0167 357.686 53.1486 355.752C50.5695 352.872 50 351.187 50 347.313C51.6922 341.707 53.6589 340.626 59.4177 340.612Z" fill="#C24344"/>
<path d="M221.424 340.483C223.051 340.464 223.051 340.464 224.711 340.444C226.461 340.456 226.461 340.456 228.246 340.469C229.449 340.465 230.653 340.461 231.892 340.457C234.437 340.455 236.981 340.462 239.526 340.479C243.42 340.5 247.311 340.479 251.205 340.453C253.677 340.456 256.149 340.461 258.621 340.469C259.786 340.461 260.951 340.453 262.151 340.444C270.178 340.537 270.178 340.537 274.231 342.818C276 345 276 345 276.688 348.438C275.958 352.218 275.066 353.625 272.052 355.968C267.687 358.164 262.778 357.708 257.996 357.664C256.262 357.671 256.262 357.671 254.493 357.679C252.055 357.682 249.616 357.673 247.178 357.652C243.446 357.625 239.718 357.652 235.986 357.684C233.615 357.68 231.243 357.674 228.871 357.664C227.756 357.674 226.642 357.684 225.493 357.695C217.8 357.578 217.8 357.578 213.793 354.681C211.435 351.155 211.319 349.162 212 345C214.882 341.293 216.784 340.498 221.424 340.483Z" fill="#C24244"/>
<path d="M140.531 340.483C141.639 340.47 142.747 340.457 143.889 340.444C145.08 340.452 146.272 340.461 147.5 340.469C148.728 340.465 149.956 340.461 151.221 340.457C153.816 340.455 156.412 340.462 159.008 340.479C162.985 340.5 166.96 340.479 170.937 340.453C173.458 340.456 175.979 340.461 178.5 340.469C179.692 340.461 180.883 340.453 182.111 340.444C183.773 340.463 183.773 340.463 185.469 340.483C186.443 340.486 187.416 340.489 188.42 340.492C191.755 341.149 192.946 342.336 195 345C195.5 348.5 195.5 348.5 195 352C193.133 354.365 191.679 355.66 189 357C187.332 357.116 185.659 357.17 183.987 357.193C182.42 357.217 182.42 357.217 180.821 357.242C176.04 357.286 171.26 357.327 166.48 357.35C163.957 357.367 161.434 357.394 158.911 357.432C155.278 357.487 151.645 357.509 148.012 357.524C146.884 357.546 145.757 357.569 144.596 357.592C136.795 357.571 136.795 357.571 132.784 354.69C130.441 351.157 130.319 349.16 131 345C133.906 341.246 135.846 340.498 140.531 340.483Z" fill="#C24243"/>
<path d="M85.875 226.625C87.1357 226.652 88.3964 226.679 89.6953 226.707C92.7976 226.777 95.899 226.885 99 227C99 232.61 99 238.22 99 244C88.11 244 77.22 244 66 244C66 233 66 233 68.1328 229.336C73.0845 225.281 79.8566 226.38 85.875 226.625Z" fill="#E3E0E7"/>
<path d="M15 168C15.66 168.33 16.32 168.66 17 169C13.7 172.3 10.4 175.6 7 179C7 175.023 8.38012 173.911 11 171C13.25 169.188 13.25 169.188 15 168Z" fill="#BC5358"/>
</g>
<defs>
<clipPath id="clip0_12_76">
<rect width="455" height="455" fill="white"/>
</clipPath>
</defs>
</svg>
