<svg width="126" height="142" viewBox="0 0 126 142" fill="none" xmlns="http://www.w3.org/2000/svg">
<g clip-path="url(#clip0_4_31)">
<rect x="4.70148" y="2.91785" width="116.597" height="131.301" fill="white"/>
<path d="M12.5159 0.040702C12.9689 0.03947 13.4219 0.0378536 13.8749 0.0358873C15.1162 0.0316273 16.3574 0.0328738 17.5987 0.0350514C18.9388 0.0364478 20.2789 0.0327564 21.6189 0.0297359C24.2429 0.0246643 26.8669 0.0244175 29.4909 0.0259635C31.6239 0.0271561 33.7569 0.0267297 35.89 0.0251527C36.1936 0.0249319 36.4973 0.0247111 36.8101 0.0244836C37.427 0.0240318 38.0439 0.0235779 38.6608 0.0231221C44.4453 0.0190726 50.2297 0.0206773 56.0141 0.0240618C61.3046 0.0269919 66.5951 0.0231746 71.8855 0.0161156C77.3194 0.00892011 82.7532 0.00608518 88.187 0.00804761C91.2371 0.00907798 94.2871 0.00841869 97.3372 0.00325322C99.9337 -0.00108966 102.53 -0.0012781 105.127 0.00386418C106.451 0.00637589 107.775 0.00700634 109.1 0.00249187C110.313 -0.00159305 111.526 -0.000188371 112.74 0.00551266C113.178 0.0066221 113.616 0.00575943 114.053 0.00267702C117.609 -0.020564 120.578 0.547647 123.203 3.10528C125.723 6.20021 125.975 9.09469 125.959 12.9543C125.961 13.4507 125.962 13.9471 125.964 14.4436C125.969 15.8049 125.967 17.1663 125.965 18.5276C125.964 19.9969 125.967 21.4662 125.97 22.9355C125.975 25.813 125.976 28.6904 125.974 31.5678C125.973 33.9067 125.973 36.2456 125.975 38.5845C125.975 38.9174 125.975 39.2503 125.976 39.5932C125.976 40.2695 125.977 40.9458 125.977 41.6221C125.981 47.9641 125.979 54.3061 125.976 60.6481C125.973 66.4493 125.977 72.2506 125.984 78.0518C125.991 84.0094 125.994 89.9669 125.992 95.9245C125.991 99.2688 125.992 102.613 125.997 105.958C126.001 108.805 126.001 111.652 125.996 114.499C125.994 115.951 125.993 117.403 125.998 118.856C126.002 120.186 126 121.516 125.995 122.846C125.993 123.327 125.994 123.807 125.997 124.288C126.019 127.973 125.543 131.057 122.909 133.8C119.943 136.407 116.862 136.897 113.016 136.805C112.694 136.801 112.373 136.797 112.041 136.793C111.259 136.783 110.476 136.768 109.694 136.75C109.616 137.02 109.538 137.29 109.457 137.568C108.844 139.232 107.534 140.36 106.06 141.304C103.994 142.244 101.072 142.135 98.9151 141.55C97.0117 140.656 95.7753 139.113 94.7165 137.34C94.7165 137.145 94.7165 136.95 94.7165 136.75C73.7836 136.75 52.8507 136.75 31.2835 136.75C31.0897 137.334 30.8959 137.918 30.6962 138.52C29.1147 140.323 27.5699 141.655 25.1382 141.864C22.0698 141.928 20.1331 141.727 17.8113 139.589C16.946 138.736 16.6425 137.914 16.3063 136.75C16.1128 136.756 15.9193 136.762 15.7199 136.768C6.75814 137.017 6.75814 137.017 3.36525 134.09C0.36198 130.994 0.023949 127.787 0.0405158 123.656C0.0392897 123.159 0.037681 122.663 0.0357233 122.166C0.0314798 120.805 0.0327242 119.444 0.034891 118.082C0.0362802 116.613 0.0326072 115.144 0.0295999 113.674C0.02455 110.797 0.0243062 107.919 0.0258448 105.042C0.0270317 102.703 0.0266072 100.364 0.0250371 98.0253C0.0248173 97.6924 0.0245981 97.3595 0.0243717 97.0166C0.0239219 96.3403 0.0234699 95.664 0.0230161 94.9877C0.0189846 88.6457 0.020583 82.3037 0.0239516 75.9617C0.0268684 70.1605 0.023069 64.3592 0.0160425 58.5579C0.00888103 52.6004 0.00605755 46.6429 0.00801128 40.6853C0.0090372 37.3409 0.00837912 33.9966 0.00323895 30.6522C-0.00108261 27.8051 -0.00127451 24.9581 0.00384613 22.111C0.00634753 20.6587 0.00697143 19.2064 0.00248053 17.7541C-0.00158215 16.4238 -0.000192149 15.0936 0.00548732 13.7633C0.00659277 13.2829 0.00573055 12.8024 0.00266537 12.322C-0.0191277 8.64382 0.451399 5.54439 3.09108 2.81026C6.06655 0.364596 8.7711 0.0241399 12.5159 0.040702ZM7.27589 7.01431C2.13608 13.3252 5.73412 23.2733 5.73412 31.4273C43.5296 31.4273 81.3251 31.4273 120.266 31.4273C122.065 18.2992 122.065 18.2992 118.724 7.01431C116.52 5.20273 114.354 5.33914 111.614 5.35306C111.177 5.35204 110.741 5.35064 110.305 5.34888C109.108 5.34519 107.911 5.34701 106.714 5.34975C105.423 5.35175 104.131 5.34866 102.84 5.34623C100.31 5.34229 97.7809 5.34314 95.2515 5.34571C93.1959 5.34771 91.1403 5.34798 89.0847 5.34702C88.7922 5.34688 88.4996 5.34674 88.1982 5.3466C87.6039 5.34632 87.0096 5.34603 86.4154 5.34574C80.8424 5.34322 75.2695 5.34612 69.6966 5.35088C64.9145 5.35483 60.1325 5.35414 55.3505 5.35006C49.7975 5.34533 44.2446 5.34346 38.6916 5.34618C38.0995 5.34646 37.5074 5.34674 36.9153 5.34702C36.4783 5.34722 36.4783 5.34722 36.0325 5.34743C33.9793 5.34819 31.9261 5.3469 29.8729 5.34482C27.3708 5.34234 24.8688 5.34301 22.3667 5.34772C21.0901 5.35005 19.8135 5.35096 18.5368 5.34804C17.3681 5.3454 16.1994 5.34685 15.0306 5.35156C14.6079 5.35254 14.1852 5.35204 13.7626 5.3499C11.1887 5.33783 9.32442 5.33054 7.27589 7.01431ZM5.73412 37.0327C5.71595 51.7883 5.69778 66.544 5.67906 81.7468C5.67103 86.4102 5.66301 91.0737 5.65475 95.8785C5.6518 100.05 5.6518 100.05 5.65003 104.221C5.64921 106.082 5.64597 107.944 5.64111 109.805C5.6355 111.952 5.63295 114.098 5.63417 116.244C5.6347 117.342 5.63386 118.441 5.62909 119.539C5.62402 120.714 5.62576 121.89 5.62817 123.066C5.62432 123.58 5.62432 123.58 5.6204 124.105C5.63277 126.338 5.82511 127.84 7.29425 129.595C8.7023 130.78 9.88189 131.255 11.716 131.257C12.2746 131.26 12.2746 131.26 12.8444 131.264C13.2555 131.262 13.6665 131.261 14.0775 131.259C14.5158 131.26 14.9542 131.262 15.3925 131.264C16.5961 131.268 17.7997 131.267 19.0033 131.264C20.3017 131.263 21.6001 131.267 22.8985 131.27C25.4419 131.275 27.9853 131.275 30.5287 131.273C32.596 131.272 34.6632 131.273 36.7304 131.274C37.0245 131.274 37.3187 131.275 37.6217 131.275C38.2192 131.275 38.8167 131.276 39.4142 131.276C45.0188 131.28 50.6234 131.279 56.228 131.275C61.3556 131.272 66.4832 131.276 71.6108 131.283C76.8754 131.29 82.1399 131.293 87.4045 131.291C90.3603 131.29 93.3161 131.291 96.272 131.296C98.7883 131.3 101.305 131.301 103.821 131.296C105.105 131.293 106.389 131.292 107.672 131.297C108.848 131.301 110.024 131.3 111.199 131.294C111.624 131.293 112.049 131.294 112.474 131.297C115.015 131.314 117.122 131.308 119.044 129.439C119.151 129.271 119.257 129.104 119.367 128.932C119.478 128.764 119.59 128.597 119.705 128.425C120.247 127.36 120.303 126.356 120.302 125.173C120.303 124.858 120.303 124.543 120.304 124.219C120.303 123.874 120.302 123.528 120.301 123.172C120.301 122.806 120.302 122.44 120.302 122.062C120.302 121.043 120.301 120.023 120.3 119.004C120.299 117.888 120.299 116.773 120.299 115.658C120.299 113.492 120.298 111.326 120.296 109.16C120.294 106.655 120.294 104.151 120.294 101.646C120.292 95.0313 120.288 88.4167 120.284 81.8021C120.278 67.0282 120.272 52.2543 120.266 37.0327C82.4704 37.0327 44.6749 37.0327 5.73412 37.0327Z" fill="#C23F3E"/>
<path d="M87.0279 55.9751C87.2682 56.1718 87.5084 56.3685 87.7559 56.5712C89.5036 58.0557 90.9195 59.7454 92.3023 61.5726C92.5199 61.857 92.7375 62.1415 92.9616 62.4345C95.9392 66.5248 97.8453 71.1047 99.0419 76.0083C99.1102 76.284 99.1786 76.5597 99.2491 76.8437C101.335 86.6503 98.7952 96.8583 93.4744 105.174C88.2798 112.492 80.951 117.51 72.3768 119.905C72.0319 120.005 71.687 120.105 71.3317 120.208C65.9559 121.49 58.923 121.445 53.6233 119.905C53.3172 119.819 53.3172 119.819 53.005 119.732C46.8967 117.995 41.8162 114.855 37.214 110.477C36.9692 110.25 36.7244 110.023 36.4723 109.789C29.8021 103.393 26.3489 93.9832 26.0791 84.8372C25.9789 75.7415 29.0637 67.0589 34.8698 60.0995C35.0654 59.858 35.2611 59.6165 35.4627 59.3676C36.9383 57.6116 38.6252 56.1913 40.4372 54.7966C40.6624 54.6212 40.8875 54.4457 41.1194 54.265C44.8997 51.4597 49.1151 49.5741 53.6233 48.3153C54.1406 48.1649 54.1406 48.1649 54.6683 48.0115C65.9745 45.3163 78.224 48.5505 87.0279 55.9751ZM43.0744 60.0995C42.7775 60.336 42.7775 60.336 42.4747 60.5771C36.4247 65.5428 32.857 73.47 32.022 81.1547C31.3889 89.1461 33.6287 97.42 38.7466 103.652C40.988 106.273 43.3658 108.645 46.2977 110.477C46.5213 110.627 46.7449 110.776 46.9753 110.931C53.7766 115.317 62.218 116.348 70.0166 114.656C77.8586 112.721 85.1089 107.637 89.3584 100.686C93.8658 93.043 95.1562 84.5656 93.0097 75.9047C91.7471 71.2813 89.5656 67.2548 86.4419 63.6348C86.1975 63.3219 85.9533 63.0089 85.7093 62.6958C80.1505 56.4083 72.0706 53.2826 63.8985 52.67C56.3191 52.4163 48.8763 55.3131 43.0744 60.0995Z" fill="#C23F3E"/>
<path d="M79.4642 63.3034C85.0327 67.9689 88.5384 74.0341 89.3721 81.3112C89.831 89.042 87.766 96.0531 82.6325 101.934C82.441 102.154 82.2495 102.375 82.0522 102.602C77.5017 107.504 70.9437 110.216 64.3335 110.524C56.8393 110.694 50.0971 108.411 44.6082 103.181C39.4762 98.0213 36.5801 91.6116 36.5546 84.2757C36.5649 76.6778 39.4319 70.3638 44.6494 64.9053C54.0392 55.7693 69.2349 55.3325 79.4642 63.3034ZM46.6639 71.3498C43.2009 76.1201 41.7569 81.6638 42.5742 87.5242C43.574 92.973 46.6438 97.6986 50.986 101.05C55.6239 104.164 60.9781 105.692 66.5483 104.689C72.2459 103.472 77.0994 100.255 80.3467 95.366C81.7007 93.1531 82.6048 90.9163 83.2186 88.3817C83.2745 88.1565 83.3304 87.9313 83.388 87.6993C84.2437 82.2269 82.9672 76.8168 79.9953 72.1784C76.8162 67.8453 71.9599 64.469 66.6536 63.4588C58.7008 62.5313 51.8239 65.241 46.6639 71.3498Z" fill="#C23F3E"/>
<path d="M44.2465 11.7842C46.0063 13.1256 47.165 14.796 47.6357 16.9698C47.9687 19.4715 47.52 21.572 46.0962 23.6605C44.9736 25.0544 43.5866 25.9501 41.9023 26.5145C39.1155 26.7372 36.613 26.8169 34.2837 25.0415C32.3572 23.2657 31.4842 21.2633 31.2619 18.6707C31.3075 16.4613 32.103 14.4565 33.5878 12.8338C36.594 10.118 40.7524 9.72028 44.2465 11.7842ZM38.1479 16.6637C37.372 17.533 37.2139 17.9858 37.2139 19.1494C37.7219 20.2478 37.7219 20.2478 38.6791 20.917C39.7218 21.031 40.2446 21.0531 41.1148 20.4383C41.7299 19.5679 41.9023 19.0406 41.9023 17.971C41.3403 16.9539 40.9601 16.5815 39.8695 16.1849C38.9457 16.1335 38.9457 16.1335 38.1479 16.6637Z" fill="#C23F3E"/>
<path d="M65.0512 11.7843C65.8937 12.5024 65.8937 12.5024 66.5163 13.2573C66.7218 13.476 66.9273 13.6948 67.139 13.9202C68.3142 15.653 68.862 17.6503 68.5675 19.7386C67.9717 22.2825 66.8766 23.9894 64.7868 25.5433C62.7263 26.8241 60.3683 26.8052 58.0187 26.5146C55.971 25.9256 54.4881 24.764 53.3303 22.9793C52.1414 20.7948 51.8629 18.3657 52.4936 15.9571C53.3558 13.7642 55.1925 11.9115 57.3227 10.9557C59.9517 10.078 62.6624 10.422 65.0512 11.7843ZM58.3117 17.3818C57.9436 18.4688 57.918 18.9325 58.4033 19.978C59.0312 20.7964 59.2914 20.8913 60.3079 21.0275C61.2877 20.987 61.2877 20.987 62.1027 20.3094C62.804 19.477 62.804 19.477 62.7254 18.3945C62.3914 17.3082 62.1664 16.8488 61.2419 16.2034C59.9088 15.9284 59.2211 16.4167 58.3117 17.3818Z" fill="#C23F3E"/>
<path d="M22.8558 11.4896C24.7152 12.7762 26.1715 14.2364 26.6651 16.4979C26.917 18.9719 26.9737 21.201 25.493 23.2739C25.3238 23.5351 25.1546 23.7964 24.9802 24.0656C23.1344 25.973 21.3141 26.5553 18.7169 26.625C16.3358 26.6343 14.6739 26.09 12.8759 24.5121C11.2276 22.7895 10.5387 20.9494 10.4207 18.5786C10.502 16.1895 11.4686 14.0234 13.1861 12.3734C16.1223 10.4266 19.6115 9.7631 22.8558 11.4896ZM16.4093 17.6764C16.1995 18.8012 16.3242 19.2865 16.8672 20.291C17.556 21.0062 17.556 21.0062 18.607 21.0827C19.6319 20.9951 19.6319 20.9951 20.3285 20.4199C20.8689 19.6467 21.0747 19.2115 21.0977 18.2656C20.6225 17.2385 20.2876 16.8388 19.3395 16.2033C17.8764 15.9323 17.2769 16.5299 16.4093 17.6764Z" fill="#C23F3E"/>
<path d="M62.2125 68.1829C62.4125 68.1713 62.6124 68.1597 62.8184 68.1478C63.6368 68.1437 64.2765 68.1951 64.925 68.7228C65.5636 69.4611 65.9143 70.0391 66.1134 71.0001C65.8746 72.1525 65.3473 72.9024 64.4651 73.6515C63.6521 73.8944 63.002 74.0368 62.1759 74.1302C59.1896 74.5842 56.818 75.5708 54.9487 78.0568C53.8099 79.8111 53.3163 81.4521 53.1105 83.5392C52.8051 85.6243 52.8051 85.6243 51.9567 86.4116C50.802 87.003 50.2124 87.1381 48.9349 86.9088C47.6487 86.321 47.6487 86.321 47.1768 85.4357C46.5107 81.1824 48.0263 77.4102 50.4 73.9461C53.197 70.3062 57.7341 68.3415 62.2125 68.1829Z" fill="#C23F3E"/>
<path d="M77.6329 15.7234C78.0538 15.7224 78.0538 15.7224 78.4833 15.7213C79.0754 15.7216 79.6675 15.7255 80.2595 15.7328C81.1645 15.7429 82.0687 15.7389 82.9737 15.7332C83.5498 15.7352 84.1259 15.7381 84.7021 15.7418C84.9719 15.7404 85.2418 15.7389 85.5198 15.7374C86.7598 15.7602 87.4381 15.7983 88.5102 16.4715C89.1073 17.1176 89.3695 17.4014 89.3778 18.2828C89.2133 20.1839 89.2133 20.1839 88.5297 20.917C87.1624 21.5639 85.9113 21.5585 84.4296 21.566C84.1742 21.5677 83.9188 21.5694 83.6556 21.5711C83.1152 21.5739 82.5748 21.5758 82.0344 21.577C81.2093 21.5798 80.3843 21.589 79.5593 21.5983C79.0339 21.6002 78.5085 21.6017 77.9831 21.6029C77.7371 21.6065 77.491 21.6101 77.2375 21.6139C75.5057 21.6073 74.5116 21.2957 73.2558 20.0332C73.1471 19.4474 73.1471 19.4474 73.1276 18.7627C73.1159 18.539 73.1042 18.3153 73.0922 18.0849C73.6488 15.6938 75.619 15.6943 77.6329 15.7234Z" fill="#C23F3E"/>
<path d="M98.5118 15.7234C98.9436 15.7223 98.9436 15.7223 99.384 15.7213C99.9912 15.7215 100.598 15.7255 101.205 15.7328C102.135 15.743 103.063 15.7389 103.993 15.7332C104.583 15.7352 105.174 15.7381 105.764 15.7418C106.181 15.7396 106.181 15.7396 106.606 15.7374C108.529 15.772 108.529 15.772 109.464 16.4715C110.238 17.6056 110.317 18.3539 110.177 19.7386C109.432 20.6694 108.962 21.1278 107.833 21.5062C106.985 21.5384 106.146 21.5545 105.298 21.5557C105.049 21.5567 104.8 21.5576 104.544 21.5587C104.017 21.5601 103.491 21.5608 102.964 21.5608C102.16 21.5614 101.357 21.5668 100.553 21.5724C100.041 21.5732 99.5287 21.5738 99.0166 21.5741C98.6571 21.5773 98.6571 21.5773 98.2904 21.5805C96.7865 21.5745 95.5775 21.4921 94.4084 20.4383C93.9141 19.4443 93.7603 18.4476 94.0604 17.3817C95.3298 15.641 96.5233 15.6954 98.5118 15.7234Z" fill="#C23F3E"/>
<rect x="3" y="3" width="120" height="131.137" rx="8" stroke="#C23F3E" stroke-width="6"/>
</g>
<defs>
<clipPath id="clip0_4_31">
<rect width="126" height="142" fill="white"/>
</clipPath>
</defs>
</svg>
