<svg width="134" height="146" viewBox="0 0 134 146" fill="none" xmlns="http://www.w3.org/2000/svg">
<g clip-path="url(#clip0_4_31)">
<rect x="4.67444" y="3.63489" width="124.34" height="134.187" fill="white"/>
<path d="M13.4291 0.185466C13.9097 0.184201 14.3904 0.182542 14.8711 0.180523C16.1883 0.176149 17.5054 0.177429 18.8226 0.179665C20.2447 0.181099 21.6667 0.177308 23.0887 0.174207C25.8731 0.169 28.6575 0.168747 31.442 0.170334C33.7054 0.171559 35.9689 0.171121 38.2323 0.169502C38.5545 0.169275 38.8767 0.169048 39.2087 0.168815C39.8634 0.168351 40.518 0.167885 41.1726 0.167417C47.3107 0.163259 53.4489 0.164907 59.587 0.168382C65.201 0.17139 70.8149 0.167471 76.4289 0.160223C82.195 0.152835 87.961 0.149925 93.7271 0.151939C96.9637 0.152997 100.2 0.15232 103.437 0.147017C106.192 0.142558 108.947 0.142365 111.703 0.147644C113.108 0.150223 114.513 0.15087 115.918 0.146235C117.206 0.142041 118.493 0.143483 119.781 0.149337C120.246 0.150476 120.71 0.14959 121.175 0.146425C124.948 0.122563 128.098 0.705959 130.884 3.33194C133.558 6.50957 133.826 9.4814 133.809 13.4441C133.81 13.9538 133.812 14.4635 133.814 14.9732C133.819 16.371 133.817 17.7687 133.815 19.1664C133.814 20.675 133.818 22.1835 133.821 23.6921C133.826 26.6464 133.826 29.6007 133.825 32.5551C133.824 34.9565 133.824 37.3578 133.826 39.7592C133.826 40.101 133.826 40.4428 133.826 40.7949C133.827 41.4893 133.827 42.1836 133.828 42.878C133.832 49.3895 133.83 55.9009 133.827 62.4124C133.824 68.3687 133.828 74.325 133.835 80.2813C133.843 86.398 133.846 92.5147 133.844 98.6315C133.843 102.065 133.843 105.499 133.849 108.933C133.853 111.856 133.854 114.779 133.848 117.702C133.845 119.193 133.845 120.684 133.85 122.175C133.854 123.541 133.852 124.907 133.846 126.273C133.845 126.766 133.846 127.259 133.849 127.753C133.873 131.537 133.367 134.703 130.572 137.519C127.425 140.196 124.155 140.699 120.074 140.604C119.733 140.6 119.392 140.596 119.04 140.592C118.209 140.582 117.379 140.567 116.549 140.548C116.466 140.825 116.383 141.102 116.298 141.388C115.647 143.096 114.257 144.255 112.692 145.224C110.501 146.189 107.4 146.077 105.111 145.476C103.091 144.558 101.779 142.974 100.656 141.154C100.656 140.954 100.656 140.754 100.656 140.548C78.443 140.548 56.2301 140.548 33.3442 140.548C33.1385 141.147 32.9328 141.747 32.7209 142.365C31.0427 144.217 29.4035 145.584 26.8231 145.799C23.5671 145.865 21.512 145.658 19.0483 143.463C18.13 142.587 17.808 141.743 17.4512 140.548C17.2458 140.554 17.0405 140.56 16.8289 140.567C7.3192 140.822 7.3192 140.822 3.71885 137.817C0.531941 134.638 0.173241 131.346 0.19082 127.104C0.189519 126.594 0.187812 126.084 0.185735 125.575C0.181232 124.177 0.182552 122.779 0.184852 121.381C0.186326 119.873 0.182428 118.364 0.179237 116.856C0.173878 113.901 0.17362 110.947 0.175252 107.993C0.176512 105.591 0.176061 103.19 0.174395 100.788C0.174162 100.447 0.173929 100.105 0.173689 99.7528C0.173212 99.0584 0.172732 98.3641 0.172251 97.6697C0.167973 91.1582 0.169669 84.6468 0.173243 78.1353C0.176338 72.179 0.172307 66.2227 0.164851 60.2664C0.157251 54.1497 0.154255 48.033 0.156328 41.9162C0.157417 38.4825 0.156719 35.0487 0.151264 31.615C0.146678 28.6918 0.146475 25.7687 0.151908 22.8455C0.154563 21.3544 0.155225 19.8634 0.150459 18.3722C0.146148 17.0064 0.147623 15.6406 0.15365 14.2748C0.154823 13.7815 0.153908 13.2882 0.150655 12.795C0.12753 9.01848 0.626827 5.83623 3.42791 3.02904C6.58532 0.518016 9.45524 0.168462 13.4291 0.185466ZM7.86861 7.34543C2.41452 13.8249 6.23256 24.0389 6.23256 32.4108C46.3391 32.4108 86.4456 32.4108 127.767 32.4108C129.676 18.9319 129.676 18.9319 126.131 7.34543C123.793 5.48544 121.494 5.6255 118.586 5.63979C118.123 5.63874 117.66 5.6373 117.197 5.63549C115.927 5.6317 114.657 5.63357 113.387 5.63639C112.017 5.63844 110.646 5.63527 109.276 5.63277C106.592 5.62873 103.908 5.6296 101.224 5.63224C99.0423 5.63429 96.861 5.63457 94.6797 5.63358C94.3693 5.63344 94.0588 5.6333 93.739 5.63316C93.1084 5.63287 92.4777 5.63257 91.8471 5.63227C85.9334 5.62968 80.0197 5.63266 74.106 5.63754C69.0316 5.6416 63.9572 5.6409 58.8828 5.63671C52.9903 5.63185 47.0978 5.62993 41.2053 5.63272C40.5769 5.63301 39.9486 5.6333 39.3203 5.63358C38.8566 5.63379 38.8566 5.63379 38.3835 5.634C36.2048 5.63479 34.0261 5.63346 31.8473 5.63132C29.1923 5.62878 26.5372 5.62947 23.8822 5.63431C22.5275 5.63669 21.1728 5.63763 19.8181 5.63462C18.5779 5.63192 17.3377 5.63341 16.0975 5.63824C15.649 5.63925 15.2004 5.63874 14.7519 5.63653C12.0206 5.62414 10.0424 5.61667 7.86861 7.34543ZM6.23256 38.166C6.21328 53.3159 6.194 68.4659 6.17413 84.0749C6.16562 88.863 6.15711 93.6511 6.14834 98.5843C6.14521 102.867 6.14521 102.867 6.14333 107.149C6.14246 109.061 6.13903 110.972 6.13386 112.883C6.12791 115.087 6.1252 117.291 6.12651 119.494C6.12707 120.622 6.12617 121.749 6.12111 122.877C6.11573 124.084 6.11758 125.291 6.12014 126.498C6.11605 127.026 6.11605 127.026 6.11189 127.565C6.12502 129.858 6.32912 131.4 7.88809 133.202C9.38223 134.418 10.6339 134.906 12.5802 134.908C13.173 134.912 13.173 134.912 13.7777 134.915C14.2138 134.914 14.65 134.912 15.0861 134.91C15.5513 134.911 16.0164 134.913 16.4816 134.915C17.7587 134.919 19.0359 134.918 20.3131 134.916C21.6909 134.914 23.0687 134.918 24.4465 134.921C27.1454 134.926 29.8443 134.927 32.5433 134.925C34.7369 134.924 36.9305 134.924 39.1242 134.926C39.4363 134.926 39.7484 134.926 40.07 134.927C40.704 134.927 41.338 134.928 41.9721 134.928C47.9194 134.932 53.8667 134.931 59.8139 134.927C65.2551 134.924 70.6962 134.928 76.1373 134.935C81.7238 134.943 87.3102 134.945 92.8967 134.943C96.0333 134.942 99.1698 134.943 102.306 134.948C104.977 134.953 107.647 134.953 110.317 134.948C111.679 134.945 113.042 134.945 114.404 134.949C115.652 134.953 116.899 134.952 118.147 134.946C118.597 134.945 119.048 134.946 119.499 134.949C122.196 134.967 124.432 134.96 126.471 133.041C126.584 132.87 126.697 132.698 126.813 132.521C126.932 132.349 127.05 132.177 127.172 132C127.747 130.907 127.806 129.876 127.806 128.662C127.806 128.338 127.807 128.015 127.808 127.682C127.807 127.327 127.806 126.973 127.805 126.607C127.805 126.231 127.805 125.855 127.806 125.468C127.806 124.421 127.805 123.374 127.804 122.327C127.802 121.182 127.803 120.037 127.803 118.892C127.803 116.668 127.802 114.445 127.8 112.221C127.797 109.649 127.797 107.077 127.797 104.506C127.795 97.7144 127.791 90.9231 127.787 84.1317C127.781 68.963 127.774 53.7943 127.767 38.166C87.6609 38.166 47.5544 38.166 6.23256 38.166Z" fill="#C23F3E"/>
<path d="M92.5535 57.5519C92.809 57.7542 93.0645 57.9565 93.3277 58.1648C95.1863 59.6911 96.6922 61.4285 98.1628 63.3071C98.3942 63.5996 98.6256 63.892 98.864 64.1934C102.031 68.3988 104.058 73.1077 105.33 78.1494C105.403 78.4329 105.476 78.7164 105.551 79.0085C107.769 89.0913 105.068 99.5868 99.4093 108.137C93.8849 115.661 86.0907 120.821 76.9721 123.282C76.6053 123.385 76.2386 123.488 75.8607 123.595C70.1435 124.912 62.6641 124.866 57.0279 123.282C56.7024 123.194 56.7024 123.194 56.3704 123.105C49.8742 121.319 44.4712 118.091 39.5767 113.589C39.3164 113.356 39.0561 113.122 38.7879 112.882C31.6943 106.306 28.0218 96.6307 27.7349 87.2271C27.6283 77.8751 30.9089 68.948 37.0837 61.7926C37.2918 61.5443 37.4999 61.2959 37.7143 61.0401C39.2836 59.2345 41.0775 57.7743 43.0046 56.3403C43.2441 56.1599 43.4835 55.9795 43.7302 55.7937C47.7505 52.9094 52.2335 50.9706 57.0279 49.6764C57.578 49.5218 57.578 49.5218 58.1393 49.364C70.1633 46.5929 83.1906 49.9182 92.5535 57.5519ZM45.8093 61.7926C45.4936 62.0357 45.4936 62.0357 45.1714 62.2836C38.7373 67.3892 34.9431 75.5397 34.0551 83.4408C33.3818 91.6574 35.7638 100.164 41.2067 106.572C43.5904 109.267 46.1191 111.705 49.2372 113.589C49.475 113.743 49.7128 113.897 49.9578 114.055C57.191 118.565 66.1684 119.626 74.462 117.886C82.8019 115.896 90.5126 110.669 95.0319 103.522C99.8255 95.664 101.198 86.9479 98.9151 78.043C97.5723 73.2893 95.2523 69.1494 91.9302 65.4274C91.6704 65.1058 91.4106 64.7839 91.1512 64.4619C85.2394 57.9974 76.6465 54.7836 67.9556 54.1537C59.8949 53.8929 51.9795 56.8713 45.8093 61.7926Z" fill="#C23F3E"/>
<path d="M84.5096 65.0866C90.4316 69.8835 94.1599 76.1195 95.0465 83.6016C95.5346 91.5502 93.3385 98.7588 87.8791 104.805C87.6754 105.032 87.4718 105.259 87.2619 105.492C82.4225 110.532 75.4481 113.32 68.4182 113.638C60.4482 113.812 53.2779 111.465 47.4405 106.088C41.9826 100.782 38.9027 94.1922 38.8756 86.6496C38.8865 78.8378 41.9356 72.3458 47.4843 66.7336C57.4703 57.3403 73.6308 56.8911 84.5096 65.0866ZM49.6268 73.3597C45.9439 78.2643 44.4081 83.9642 45.2774 89.9897C46.3406 95.5919 49.6054 100.451 54.2233 103.896C59.1556 107.098 64.8498 108.669 70.7736 107.638C76.833 106.387 81.9946 103.079 85.4482 98.0523C86.888 95.7771 87.8496 93.4773 88.5024 90.8714C88.5618 90.6398 88.6213 90.4083 88.6825 90.1697C89.5925 84.5431 88.235 78.9806 85.0744 74.2116C81.6935 69.7564 76.5288 66.285 70.8856 65.2463C62.4279 64.2928 55.1144 67.0788 49.6268 73.3597Z" fill="#C23F3E"/>
<path d="M47.0558 12.1162C48.9273 13.4953 50.1596 15.2128 50.6603 17.4477C51.0143 20.02 50.5371 22.1797 49.023 24.327C47.8291 25.7601 46.3541 26.681 44.5628 27.2614C41.599 27.4903 38.9377 27.5722 36.4605 25.7469C34.4117 23.921 33.4832 21.8622 33.2468 19.1965C33.2953 16.925 34.1414 14.8636 35.7204 13.1952C38.9175 10.403 43.3399 9.99405 47.0558 12.1162ZM40.5701 17.133C39.7448 18.0268 39.5768 18.4924 39.5768 19.6888C40.117 20.8181 40.117 20.8181 41.1349 21.5062C42.2439 21.6234 42.7998 21.6461 43.7253 21.014C44.3795 20.119 44.5628 19.5769 44.5628 18.4771C43.9651 17.4314 43.5608 17.0486 42.4009 16.6408C41.4185 16.5879 41.4185 16.5879 40.5701 17.133Z" fill="#C23F3E"/>
<path d="M69.1814 12.1161C70.0773 12.8545 70.0773 12.8545 70.7395 13.6307C70.958 13.8556 71.1766 14.0805 71.4017 14.3122C72.6515 16.0939 73.2341 18.1474 72.9209 20.2946C72.2872 22.9101 71.1226 24.6651 68.9002 26.2627C66.7088 27.5796 64.2011 27.5601 61.7023 27.2614C59.5247 26.6558 57.9476 25.4615 56.7163 23.6265C55.4519 21.3805 55.1557 18.8829 55.8264 16.4065C56.7434 14.1518 58.6967 12.247 60.9622 11.2642C63.758 10.3618 66.6409 10.7155 69.1814 12.1161ZM62.0139 17.8713C61.6225 18.989 61.5953 19.4658 62.1113 20.5407C62.7792 21.3822 63.0558 21.4797 64.1369 21.6198C65.1789 21.5781 65.1789 21.5781 66.0456 20.8814C66.7914 20.0256 66.7914 20.0256 66.7078 18.9126C66.3527 17.7957 66.1134 17.3233 65.1302 16.6597C63.7125 16.377 62.9811 16.879 62.0139 17.8713Z" fill="#C23F3E"/>
<path d="M24.307 11.8133C26.2844 13.1361 27.8331 14.6375 28.3581 16.9627C28.626 19.5063 28.6864 21.7983 27.1116 23.9295C26.9317 24.1981 26.7517 24.4668 26.5663 24.7436C24.6032 26.7047 22.6674 27.3034 19.9052 27.375C17.373 27.3846 15.6055 26.825 13.6934 25.2027C11.9404 23.4315 11.2079 21.5396 11.0823 19.102C11.1687 16.6456 12.1968 14.4185 14.0233 12.722C17.1459 10.7203 20.8566 10.0382 24.307 11.8133ZM17.4512 18.1743C17.2281 19.3308 17.3606 19.8298 17.9381 20.8626C18.6706 21.598 18.6706 21.598 19.7884 21.6767C20.8784 21.5866 20.8784 21.5866 21.6192 20.9951C22.1939 20.2002 22.4128 19.7527 22.4372 18.7801C21.9319 17.7241 21.5757 17.3132 20.5674 16.6598C19.0114 16.3812 18.3739 16.9956 17.4512 18.1743Z" fill="#C23F3E"/>
<path d="M66.1625 70.1034C66.3752 70.0915 66.5878 70.0796 66.8069 70.0673C67.6772 70.0632 68.3576 70.116 69.0472 70.6585C69.7264 71.4176 70.0993 72.012 70.3111 73C70.0571 74.1849 69.4963 74.9558 68.5582 75.7261C67.6935 75.9758 67.0021 76.1222 66.1236 76.2183C62.9477 76.6851 60.4255 77.6995 58.4376 80.2555C57.2264 82.0592 56.7015 83.7465 56.4826 85.8923C56.1578 88.0361 56.1578 88.0361 55.2555 88.8457C54.0275 89.4537 53.4005 89.5926 52.0419 89.3568C50.674 88.7524 50.674 88.7524 50.1721 87.8423C49.4637 83.4692 51.0756 79.5907 53.6 76.029C56.5746 72.2865 61.3998 70.2666 66.1625 70.1034Z" fill="#C23F3E"/>
<path d="M82.5619 16.1663C83.0096 16.1652 83.0096 16.1652 83.4663 16.1641C84.096 16.1644 84.7257 16.1685 85.3553 16.176C86.3178 16.1864 87.2793 16.1823 88.2418 16.1764C88.8545 16.1785 89.4672 16.1814 90.0799 16.1853C90.3669 16.1838 90.6539 16.1822 90.9496 16.1807C92.2684 16.2042 92.9897 16.2433 94.1299 16.9355C94.7648 17.5998 95.0438 17.8916 95.0526 18.7978C94.8776 20.7524 94.8776 20.7524 94.1506 21.5062C92.6965 22.1713 91.3659 22.1658 89.7902 22.1735C89.5186 22.1753 89.2469 22.177 88.967 22.1788C88.3923 22.1816 87.8176 22.1836 87.2429 22.1848C86.3654 22.1877 85.4881 22.1971 84.6106 22.2067C84.0519 22.2086 83.4932 22.2102 82.9344 22.2114C82.6727 22.2151 82.411 22.2189 82.1414 22.2227C80.2997 22.2159 79.2425 21.8956 77.907 20.5975C77.7913 19.9952 77.7913 19.9952 77.7706 19.2912C77.7582 19.0612 77.7457 18.8312 77.7329 18.5943C78.3249 16.1359 80.4201 16.1364 82.5619 16.1663Z" fill="#C23F3E"/>
<path d="M104.767 16.1664C105.226 16.1653 105.226 16.1653 105.694 16.1642C106.34 16.1645 106.986 16.1685 107.631 16.1761C108.62 16.1865 109.607 16.1823 110.596 16.1765C111.224 16.1785 111.851 16.1815 112.479 16.1853C112.923 16.1831 112.923 16.1831 113.375 16.1808C115.42 16.2164 115.42 16.2164 116.414 16.9356C117.237 18.1016 117.321 18.871 117.172 20.2947C116.38 21.2517 115.88 21.723 114.679 22.1121C113.778 22.1452 112.885 22.1618 111.984 22.163C111.719 22.164 111.454 22.165 111.182 22.166C110.622 22.1675 110.062 22.1683 109.502 22.1682C108.647 22.1689 107.792 22.1744 106.937 22.1801C106.393 22.181 105.848 22.1816 105.303 22.1819C104.921 22.1852 104.921 22.1852 104.531 22.1885C102.932 22.1823 101.646 22.0975 100.403 21.014C99.8769 19.9921 99.7134 18.9673 100.033 17.8714C101.382 16.0817 102.652 16.1376 104.767 16.1664Z" fill="#C23F3E"/>
</g>
<defs>
<clipPath id="clip0_4_31">
<rect width="134" height="146" fill="white"/>
</clipPath>
</defs>
</svg>
