<svg width="82" height="100" viewBox="0 0 82 100" fill="none" xmlns="http://www.w3.org/2000/svg">
<rect x="3" y="3" width="76" height="94" rx="5" fill="white" style="mix-blend-mode:darken"/>
<path d="M10.14 100H71.87C77.1 100 81.36 95.74 81.36 90.51V9.49C81.36 4.26 77.1 0 71.86 0H10.14C4.9 0 0.639999 4.26 0.639999 9.49V90.51C0.639999 95.74 4.9 100 10.14 100ZM71.86 96.8H10.14C6.67 96.8 3.85 93.98 3.85 90.51V19.86H78.16V90.51C78.15 93.98 75.33 96.8 71.86 96.8ZM10.14 3.2H71.87C75.34 3.2 78.16 6.02 78.16 9.49V16.66H3.85V9.49C3.85 6.02 6.67 3.2 10.14 3.2Z" fill="#C23F3E"/>
<path d="M49.24 11.53H52.01C52.89 11.53 53.61 10.81 53.61 9.93C53.61 9.05 52.89 8.33 52.01 8.33H49.24C48.36 8.33 47.64 9.05 47.64 9.93C47.64 10.81 48.36 11.53 49.24 11.53Z" fill="#C23F3E"/>
<path d="M59.78 11.53H62.55C63.43 11.53 64.15 10.81 64.15 9.93C64.15 9.05 63.43 8.33 62.55 8.33H59.78C58.9 8.33 58.18 9.05 58.18 9.93C58.18 10.81 58.9 11.53 59.78 11.53Z" fill="#C23F3E"/>
<path d="M70.32 11.53H73.09C73.97 11.53 74.69 10.81 74.69 9.93C74.69 9.05 73.97 8.33 73.09 8.33H70.32C69.44 8.33 68.72 9.05 68.72 9.93C68.72 10.81 69.43 11.53 70.32 11.53Z" fill="#C23F3E"/>
<path d="M13.34 15.48H28.51C30.77 15.48 32.61 13.64 32.61 11.38V8.48C32.61 6.22 30.77 4.38 28.51 4.38H13.34C11.08 4.38 9.24 6.22 9.24 8.48V11.37C9.24 13.64 11.08 15.48 13.34 15.48ZM12.44 8.48C12.44 7.98 12.84 7.58 13.34 7.58H28.51C29.01 7.58 29.41 7.98 29.41 8.48V11.37C29.41 11.87 29.01 12.27 28.51 12.27H13.34C12.85 12.27 12.44 11.87 12.44 11.37V8.48Z" fill="#C23F3E"/>
<path d="M41 29.08C25.41 29.08 12.72 41.77 12.72 57.36C12.72 72.95 25.41 85.64 41 85.64C56.59 85.64 69.28 72.95 69.28 57.36C69.28 41.77 56.59 29.08 41 29.08ZM41 82.43C27.17 82.43 15.92 71.18 15.92 57.36C15.92 43.53 27.17 32.28 41 32.28C54.83 32.28 66.07 43.53 66.07 57.36C66.07 71.18 54.83 82.43 41 82.43Z" fill="#C23F3E"/>
<path d="M62.27 55.31C61.24 44.48 52.1 35.98 41 35.98C29.21 35.98 19.62 45.57 19.62 57.36C19.62 69.15 29.21 78.74 41 78.74C52.79 78.74 62.38 69.15 62.38 57.36C62.38 56.69 62.34 56.04 62.28 55.39C62.28 55.36 62.28 55.33 62.27 55.31ZM41 39.18C49.24 39.18 56.21 44.7 58.43 52.23C52.2 49.17 43.26 48.96 37.05 53.8C32.52 57.32 26.68 58.05 22.86 58.09C22.85 57.85 22.82 57.6 22.82 57.36C22.82 47.34 30.98 39.18 41 39.18ZM41 75.53C32.32 75.53 25.06 69.42 23.26 61.27C27.54 61.18 33.91 60.29 39.01 56.32C44.91 51.73 54.11 52.68 59.12 56.36C59.14 56.69 59.17 57.02 59.17 57.35C59.18 67.38 51.02 75.53 41 75.53Z" fill="#C23F3E"/>
</svg>
