<svg xmlns="http://www.w3.org/2000/svg" xmlns:xlink="http://www.w3.org/1999/xlink" version="1.1" x="0px" y="0px" viewBox="0 0 100 125" style="enable-background:new 0 0 100 100;" xml:space="preserve"><g><path d="M19.14,100h61.73c5.23,0,9.49-4.26,9.49-9.49V9.49C90.36,4.26,86.1,0,80.86,0H19.14C13.9,0,9.64,4.26,9.64,9.49v81.02   C9.64,95.74,13.9,100,19.14,100z M80.86,96.8H19.14c-3.47,0-6.29-2.82-6.29-6.29V19.86h74.31v70.65   C87.15,93.98,84.33,96.8,80.86,96.8z M19.14,3.2h61.73c3.47,0,6.29,2.82,6.29,6.29v7.17H12.85V9.49C12.85,6.02,15.67,3.2,19.14,3.2   z"/><path d="M58.24,11.53h2.77c0.88,0,1.6-0.72,1.6-1.6c0-0.88-0.72-1.6-1.6-1.6h-2.77c-0.88,0-1.6,0.72-1.6,1.6   C56.64,10.81,57.36,11.53,58.24,11.53z"/><path d="M68.78,11.53h2.77c0.88,0,1.6-0.72,1.6-1.6c0-0.88-0.72-1.6-1.6-1.6h-2.77c-0.88,0-1.6,0.72-1.6,1.6   C67.18,10.81,67.9,11.53,68.78,11.53z"/><path d="M79.32,11.53h2.77c0.88,0,1.6-0.72,1.6-1.6c0-0.88-0.72-1.6-1.6-1.6h-2.77c-0.88,0-1.6,0.72-1.6,1.6   C77.72,10.81,78.43,11.53,79.32,11.53z"/><path d="M22.34,15.48h15.17c2.26,0,4.1-1.84,4.1-4.1V8.48c0-2.26-1.84-4.1-4.1-4.1H22.34c-2.26,0-4.1,1.84-4.1,4.1v2.89   C18.24,13.64,20.08,15.48,22.34,15.48z M21.44,8.48c0-0.5,0.4-0.9,0.9-0.9h15.17c0.5,0,0.9,0.4,0.9,0.9v2.89c0,0.5-0.4,0.9-0.9,0.9   H22.34c-0.49,0-0.9-0.4-0.9-0.9V8.48z"/><path d="M50,29.08c-15.59,0-28.28,12.69-28.28,28.28c0,15.59,12.69,28.28,28.28,28.28c15.59,0,28.28-12.69,28.28-28.28   C78.28,41.77,65.59,29.08,50,29.08z M50,82.43c-13.83,0-25.08-11.25-25.08-25.07c0-13.83,11.25-25.08,25.08-25.08   c13.83,0,25.07,11.25,25.07,25.08C75.07,71.18,63.83,82.43,50,82.43z"/><path d="M71.27,55.31C70.24,44.48,61.1,35.98,50,35.98c-11.79,0-21.38,9.59-21.38,21.38c0,11.79,9.59,21.38,21.38,21.38   c11.79,0,21.38-9.59,21.38-21.38c0-0.67-0.04-1.32-0.1-1.97C71.28,55.36,71.28,55.33,71.27,55.31z M50,39.18   c8.24,0,15.21,5.52,17.43,13.05c-6.23-3.06-15.17-3.27-21.38,1.57c-4.53,3.52-10.37,4.25-14.19,4.29   c-0.01-0.24-0.04-0.49-0.04-0.73C31.82,47.34,39.98,39.18,50,39.18z M50,75.53c-8.68,0-15.94-6.11-17.74-14.26   c4.28-0.09,10.65-0.98,15.75-4.95c5.9-4.59,15.1-3.64,20.11,0.04c0.02,0.33,0.05,0.66,0.05,0.99C68.18,67.38,60.02,75.53,50,75.53z   "/></g><text x="0" y="115" fill="#000000" font-size="5px" font-weight="bold" font-family="'Helvetica Neue', Helvetica, Arial-Unicode, Arial, Sans-serif">Created by MUHAMAD KHOTIBUL UMAM</text><text x="0" y="120" fill="#000000" font-size="5px" font-weight="bold" font-family="'Helvetica Neue', Helvetica, Arial-Unicode, Arial, Sans-serif">from the Noun Project</text></svg>